<?xml version="1.0" standalone="no"?>
<!DOCTYPE svg PUBLIC "-//W3C//DTD SVG 1.1//EN" "http://www.w3.org/Graphics/SVG/1.1/DTD/svg11.dtd" >
<svg xmlns="http://www.w3.org/2000/svg">
<metadata>Generated by IcoMoon</metadata>
<defs>
<font id="ANRA" horiz-adv-x="1024">
<font-face units-per-em="1024" ascent="960" descent="-64" />
<missing-glyph horiz-adv-x="1024" />
<glyph unicode="&#x20;" horiz-adv-x="512" d="" />
<glyph unicode="&#xe900;" glyph-name="ico_analytics_light" d="M213.333 106.667v-85.333h-85.333v85.333h85.333zM298.667 192h-256v-256h256v256zM554.667 234.667v-213.333h-85.333v213.333h85.333zM640 320h-256v-384h256v384zM896 405.333v-384h-85.333v384h85.333zM981.333 490.667h-256v-554.667h256v554.667zM981.333 960l-256-52.096 73.216-72.875-292.267-287.275-128.043 128.085-334.549-332.672 60.16-60.501 274.219 272.64 127.616-127.701 353.28 347.179 71.125-70.827 51.243 256.043z" />
<glyph unicode="&#xe901;" glyph-name="ico_add_dark" d="M512 960c-282.77 0-512-229.23-512-512s229.23-512 512-512c282.77 0 512 229.23 512 512s-229.23 512-512 512zM768 405.388h-213.388v-213.388h-85.223v213.388h-213.388v85.223h213.388v213.388h85.388v-213.388h213.223v-85.388z" />
<glyph unicode="&#xe902;" glyph-name="ico_add_light" d="M512 874.612c235.611 0 426.612-191.001 426.612-426.612s-191.001-426.612-426.612-426.612c-235.611 0-426.612 191.001-426.612 426.612 0.282 235.498 191.114 426.33 426.585 426.612zM512 960c-282.77 0-512-229.23-512-512s229.23-512 512-512c282.77 0 512 229.23 512 512s-229.23 512-512 512zM768 405.388h-213.388v-213.388h-85.223v213.388h-213.388v85.223h213.388v213.388h85.388v-213.388h213.223v-85.388z" />
<glyph unicode="&#xe903;" glyph-name="ico_admin_dark" d="M888.403 187.871c-146.663 33.858-283.252 63.587-217.187 188.449 201.332 380.366 53.347 583.68-159.215 583.68-216.857 0-361.043-211.076-159.215-583.68 68.212-125.688-73.662-155.417-217.187-188.449-127.174-29.399-135.597-91.334-135.597-199.019v-52.852h447.587l30.059 128h68.872l29.894-128h447.587v52.852c0 107.685-8.423 169.621-135.597 199.019zM537.27 106.612h-49.548l-38.978 85.388h127.67z" />
<glyph unicode="&#xe904;" glyph-name="ico_adminstration_dark" horiz-adv-x="1117" d="M791.379 510.975v106.67c-54.056 19.46-88.832 24.866-106.13 66.669s3.243 70.453 27.929 122.166l-75.318 75.318c-51.353-24.505-80.183-45.407-122.166-27.929s-47.209 51.894-66.669 106.13h-106.67c-19.1-54.056-24.686-88.832-66.669-106.13v0c-41.803-18.019-70.273 3.243-122.166 27.929l-75.318-75.498c24.505-52.074 45.407-80.183 27.929-122.166s-52.074-47.389-106.13-66.489v-106.67c54.056-19.1 88.832-24.686 106.13-66.669s-3.784-72.075-27.929-122.166l75.318-75.318c51.533 24.505 80.183 45.407 122.166 27.929v0c41.803-18.019 47.389-52.074 66.669-106.13h106.49c19.1 54.056 24.686 88.652 66.849 106.31v0c41.623 18.019 69.912-3.243 121.986-28.109l75.318 74.958c-24.505 51.533-45.407 80.183-27.929 122.166s52.434 47.93 106.31 67.029zM396.41 432.414c-72.844 0-131.897 59.052-131.897 131.897s59.052 131.897 131.897 131.897c72.844 0 131.897-59.052 131.897-131.897s-59.052-131.897-131.897-131.897zM1117.156 236.551v50.272c-25.586 9.19-41.803 11.712-49.912 31.352s1.441 32.974 13.874 57.66l-36.037 36.037c-24.145-11.532-37.839-21.262-57.48-13.154s-22.523 23.604-31.533 49.191h-50.092c-9.009-25.406-11.712-41.803-31.352-49.912s-33.154 1.441-57.48 13.874l-36.037-36.037c11.532-24.325 21.262-37.839 13.154-57.48s-24.505-22.343-49.912-31.352v-50.092c25.406-9.009 41.803-11.712 49.912-31.352s-1.802-33.695-13.154-57.48l36.037-36.037c24.325 11.532 37.839 21.262 57.48 13.154s22.343-24.505 31.352-49.912h50.092c9.009 25.406 11.712 41.803 31.533 49.912v0c19.64 8.108 32.794-1.622 57.299-13.154l36.037 36.037c-11.532 24.325-21.262 37.839-13.154 57.48s23.965 22.163 49.371 30.992zM931.024 199.613c-34.233 0-61.984 27.751-61.984 61.984s27.751 61.984 61.984 61.984c34.233 0 61.984-27.751 61.984-61.984s-27.751-61.984-61.984-61.984zM744.711 56.725v37.659c-19.1 6.847-31.352 8.829-37.479 23.424s1.081 24.866 9.91 43.065l-26.668 26.668c-18.019-8.649-28.289-16.037-43.065-9.91s-16.757 18.019-23.604 37.479h-37.479c-6.847-19.46-8.829-31.352-23.604-37.479s-24.866 1.081-43.065 9.91l-26.668-26.668c8.649-18.019 16.037-28.289 9.91-43.065s-18.019-16.757-37.479-23.424v-37.659c18.92-6.667 31.352-8.829 37.479-23.424s-1.261-25.226-9.91-43.065l26.668-26.668c18.019 8.649 28.289 16.037 43.065 9.91s16.757-18.019 23.604-37.479h37.479c6.847 19.1 8.829 31.352 23.604 37.479v0c14.595 6.126 24.686-1.081 43.065-9.91l26.668 26.668c-8.649 18.019-16.037 28.289-9.91 43.065s18.559 16.757 37.479 23.424zM605.066 28.976c-25.675 0-46.488 20.813-46.488 46.488s20.813 46.488 46.488 46.488c25.675 0 46.488-20.813 46.488-46.488 0 0 0 0 0 0 0-25.675-20.813-46.488-46.488-46.488z" />
<glyph unicode="&#xe905;" glyph-name="ico_adminstration_light" horiz-adv-x="1117" d="M436.232 941.981l3.424-10.271c14.415-42.704 25.767-76.579 69.011-94.418 10.995-4.833 23.805-7.676 37.272-7.748 29.374 2.414 56.143 11.618 79.344 26.024l8.794 4.248 57.119-57.299-4.685-9.37c-20.181-40.542-36.037-72.075-18.019-116.040s51.714-54.056 94.418-69.011l10.271-3.424v-80.904l-10.090-3.784c-42.884-14.415-76.759-25.767-94.778-69.011s-1.622-75.138 18.019-115.139l4.865-9.91-57.119-57.299-9.91 4.865c-22.331 13.983-48.964 23.24-77.536 25.72-12.81-0.025-24.381-2.4-34.989-6.663l0.629 0.223-3.243-1.441c-43.605-18.019-54.957-51.894-69.372-94.778l-3.424-10.090h-81.084l-3.424 10.090c-14.415 42.884-25.767 76.579-69.011 94.598l-3.424 1.441c-10.035 4.046-21.669 6.422-33.849 6.487-29.326-2.504-56.024-11.763-79.156-26.202l-8.982-4.43-57.299 57.48 4.865 9.55c20.181 40.362 36.037 72.075 18.019 115.86s-51.714 54.056-94.418 69.011l-10.451 3.424v81.084l10.271 3.424c42.704 14.415 76.579 25.767 94.598 69.011s2.162 75.318-18.019 115.68l-4.865 9.73 57.119 57.299 9.73-4.865c22.385-13.997 49.082-23.256 77.719-25.721 12.868 0.019 24.502 2.395 35.172 6.665l-0.635-0.224 3.243 1.441c43.425 18.019 54.056 51.714 69.011 94.598l3.424 10.271h80.904zM396.41 414.395c82.796 0 149.915 67.119 149.915 149.915s-67.119 149.915-149.915 149.915c-82.796 0-149.915-67.119-149.915-149.915 0.102-82.755 67.161-149.813 149.905-149.915zM943.096 429.891c4.052-21.64 18.014-39.345 36.898-48.475 6.619-2.895 13.863-4.484 21.477-4.499 14.756 0.935 28.296 5.369 40.040 12.473l17.626-18.239c-7.627-10.102-12.216-22.87-12.216-36.709 0-30.643 22.497-56.031 51.875-60.549l0.342-24.188c-30.208-4.2-53.211-29.858-53.211-60.89 0-14.019 4.695-26.941 12.598-37.28l-18.127-17.87c-11.288 6.917-24.756 11.408-39.184 12.417-0.365 0.016-0.468 0.016-0.572 0.016-6.355 0-12.448-1.123-18.091-3.181l0.367 0.117-2.342-1.441c-19.339-9.287-33.36-26.99-37.412-48.229l-24.212-0.421c-4.090 21.673-18.121 39.387-37.075 48.476-6.622 2.895-13.866 4.484-21.48 4.499-14.756-0.943-28.294-5.376-40.041-12.474l-17.624 18.24c7.837 10.208 12.559 23.164 12.559 37.223 0 30.8-22.662 56.307-52.222 60.756l-0.339 24.187c30.208 4.2 53.211 29.858 53.211 60.89 0 14.019-4.695 26.941-12.598 37.28l18.127 17.87c11.287-6.924 24.756-11.415 39.186-12.418 0.298-0.015 0.324-0.015 0.351-0.015 7.654 0 14.936 1.591 21.535 4.46 18.593 9.191 32.311 26.647 36.341 47.553l24.393 0.422zM931.024 181.594c0 0 0 0 0 0 44.184 0 80.003 35.818 80.003 80.003s-35.818 80.003-80.003 80.003c-44.184 0-80.003-35.818-80.003-80.003 0.102-44.143 35.86-79.901 79.993-80.003zM611.012 197.090c3.765-16.215 14.711-29.294 29.224-35.904 5.557-2.412 11.652-3.738 18.056-3.738 0.101 0 0.203 0 0.304 0.001 10.651 0.49 20.516 3.504 29.127 8.454l7.976-8.454c-5.281-7.722-8.432-17.263-8.432-27.541 0-23.904 17.051-43.826 39.653-48.267l0.312-12.124c-22.92-4.573-39.951-24.53-39.951-48.464 0-10.287 3.146-19.839 8.528-27.746l-8.399-8.117c-8.301 4.772-18.164 7.784-28.684 8.283-5.122-0.025-9.888-0.88-14.327-2.43l0.307 0.093-3.243-1.441c-14.823-6.767-25.759-19.835-29.481-35.683l-12.863-0.354c-3.792 16.203-14.728 29.271-29.224 35.904-5.546 2.413-11.628 3.739-18.020 3.739-0.114 0-0.228 0-0.342-0.001-10.649-0.497-20.513-3.511-29.127-8.455l-7.974 8.455c5.378 7.79 8.59 17.434 8.59 27.828 0 23.802-16.844 43.67-39.262 48.335l-0.32 11.948c22.914 4.492 39.965 24.414 39.965 48.318 0 10.277-3.152 19.819-8.541 27.71l7.677 8.299c8.301-4.772 18.164-7.784 28.684-8.283 0.242-0.006 0.356-0.007 0.471-0.007 6.392 0 12.474 1.326 17.987 3.718 14.53 6.654 25.467 19.722 29.188 35.57l11.962 0.354zM605.066 10.958c0 0 0 0 0 0 35.626 0 64.507 28.881 64.507 64.507s-28.881 64.507-64.507 64.507c-35.626 0-64.507-28.881-64.507-64.507 0.102-35.585 28.922-64.405 64.497-64.507zM449.025 960h-106.67c-19.1-54.056-24.686-88.832-66.669-106.13v0c-8.964-4.007-19.417-6.384-30.414-6.486-27.786 0-54.094 16.036-91.753 34.415l-75.318-75.498c24.505-52.074 45.407-80.183 27.929-122.166s-52.074-47.389-106.13-66.489v-106.67c54.056-19.1 88.832-24.686 106.13-66.669s-3.784-72.075-27.929-122.166l75.318-75.318c38.2 18.019 63.966 34.416 91.895 34.416 10.975-0.129 21.362-2.503 30.768-6.684l-0.497 0.197c41.803-18.019 47.389-52.074 66.669-106.13h106.49c19.1 54.056 24.686 88.652 66.849 106.31v0c8.853 3.979 19.178 6.353 30.042 6.486 27.617 0 53.204-16.036 91.764-34.415l75.498 74.777c-24.505 51.533-45.407 80.183-27.929 122.166s52.434 47.389 106.31 66.489v107.211c-54.056 19.46-88.832 24.866-106.13 66.669s3.243 70.453 27.929 122.166l-75.318 75.318c-38.2-18.019-63.966-34.416-91.895-34.416-11.035 0.113-21.486 2.489-30.952 6.685-41.303 17.821-46.889 51.696-66.169 105.932v0zM396.41 432.414c-72.844 0-131.897 59.052-131.897 131.897s59.052 131.897 131.897 131.897c72.844 0 131.897-59.052 131.897-131.897s-59.052-131.897-131.897-131.897v0zM956.070 447.91h-50.092c-9.009-25.406-11.712-41.803-31.352-49.912-4.187-1.895-9.074-3.018-14.218-3.063-16.315 2.529-30.905 8.235-43.702 16.483l-35.596-36.303c11.532-24.325 21.262-37.839 13.154-57.48s-24.505-22.343-49.912-31.352v-50.092c25.406-9.009 41.803-11.712 49.912-31.352s-1.802-33.695-13.154-57.48l36.037-36.037c12.358 7.972 26.947 13.676 42.612 16.135 5.794 0.036 10.681-1.087 15.095-3.073 19.593-8.017 22.115-24.414 31.125-49.82h50.092c9.009 25.406 11.712 41.803 31.533 49.912v0c4.187 1.895 9.074 3.018 14.218 3.063 16.314-2.558 30.899-8.259 43.709-16.486l35.589 36.307c-11.532 24.325-21.262 37.839-13.154 57.48s24.686 22.343 49.912 31.352v50.632c-25.586 9.19-41.803 11.712-49.912 31.352s0.721 32.974 13.154 57.66l-36.037 36.037c-12.356-7.982-26.946-13.687-42.616-16.136-5.79-0.036-10.677 1.088-15.092 3.074-19.593 8.017-22.115 24.414-31.125 49.82v0zM931.024 199.613c-34.233 0-61.984 27.751-61.984 61.984s27.751 61.984 61.984 61.984c34.233 0 61.984-27.751 61.984-61.984s-27.751-61.984-61.984-61.984v0zM624.707 215.109h-38.38c-6.847-19.46-8.829-31.352-23.604-37.479-3.18-1.439-6.889-2.296-10.794-2.342-12.235 1.862-23.181 6.112-32.784 12.272l-26.334-26.868c8.649-18.019 16.037-28.289 9.91-43.065s-18.019-16.757-37.479-23.424v-37.659c18.92-6.667 31.352-8.829 37.479-23.424s-1.261-25.226-9.91-43.065l26.668-26.668c9.271 5.956 20.216 10.205 31.966 12.013 4.39 0.013 8.099-0.845 11.453-2.353 14.601-6.056 16.583-17.949 23.43-37.409h37.479c6.847 19.1 8.829 31.352 23.604 37.479v0c3.124 1.425 6.77 2.281 10.609 2.342 12.252-1.943 23.189-6.25 32.787-12.453l26.337 26.868c-8.649 18.019-16.037 28.289-9.91 43.065s18.019 16.757 37.479 23.604v37.839c-19.1 6.847-31.352 8.829-37.479 23.424s1.081 24.866 9.91 43.065l-26.668 26.668c-9.268-5.966-20.215-10.216-31.969-12.014-4.386-0.007-8.095 0.85-11.451 2.354-14.6 6.056-16.582 17.948-23.429 37.408v0zM606.688 28.976c-25.675 0-46.488 20.813-46.488 46.488s20.813 46.488 46.488 46.488c25.675 0 46.488-20.813 46.488-46.488 0 0 0 0 0 0 0-25.675-20.813-46.488-46.488-46.488v0z" />
<glyph unicode="&#xe906;" glyph-name="ico_admin_light" d="M1024-64h-85.388c0 132.129 5.12 151.453-75.148 170.116-122.715 28.408-238.658 55.164-280.774 147.489-15.36 33.032-25.6 89.352 13.213 162.684 87.205 165.161 109.006 305.714 59.788 387.303-57.146 95.133-231.226 95.628-288.702-1.486-49.548-82.581-27.086-222.968 60.779-384.991 39.639-73.001 29.729-128.826 14.369-162.849-41.951-92.986-156.738-119.412-278.462-147.489-83.737-19.324-78.286-36.996-78.286-170.777h-85.388v53.017c0 107.52 8.423 169.621 135.597 198.194 143.525 33.032 285.399 62.926 217.187 188.449-201.992 373.265-57.641 584.341 159.215 584.341 212.563 0 360.547-203.314 159.215-583.515-66.065-124.862 70.359-154.591 217.187-188.449 127.174-29.399 135.597-91.499 135.597-198.194v-53.843zM448.743 192l38.813-85.388h49.548l39.308 85.388h-127.67zM576.578-64l-30.059 128h-68.872l-30.059-128h128.991z" />
<glyph unicode="&#xe907;" horiz-adv-x="3106" d="M1979.867 830.247c47.593 0 95.186 0 142.779 0 4.889 0.638 10.543 1.002 16.282 1.002s11.393-0.364 16.94-1.071c14.872-100.127 30.903-197.317 46.434-296.010h5.010q28.055 150.294 56.11 296.078c29.558 3.006 59.115 0 89.174 0h15.029c-28.556-128.751-54.607-258.004-82.661-386.755h-176.845q-23.546 150.294-46.591 297.080h-4.509c-17.534-100.196-37.072-196.885-55.609-295.577-34.568 0-69.135 0-103.703 0 28.556 127.249 56.11 256.501 82.16 385.252z" />
<glyph unicode="&#xe908;" horiz-adv-x="3106" d="M1848.611 698.489c-5.010 44.086-7.515 88.673-13.025 132.759-7.497 0.59-16.234 0.926-25.049 0.926s-17.552-0.336-26.198-0.997c-34.922 0.071-70.992 0.071-106.562 0.071-16.031-28.055-29.558-57.112-44.587-85.667-34.067-67.131-69.135-134.262-103.202-200.391-16.532-33.065-35.068-65.127-50.098-100.196h94.184c1.958-0.352 4.212-0.554 6.513-0.554s4.555 0.201 6.745 0.588c11.791 21.007 21.31 43.050 32.332 64.592h139.272c0-22.043 3.507-44.086 6.012-66.129h105.706c-6.513 84.164-14.528 168.83-22.043 254.998zM1659.241 587.272c27.053 54.607 54.607 109.213 81.159 163.82h4.008c0-55.609 8.517-110.716 10.521-166.325h-95.687z" />
<glyph unicode="&#xe909;" horiz-adv-x="3106" d="M3049.456 829.746c-5.338 0.644-11.518 1.012-17.785 1.012s-12.447-0.368-18.522-1.082c-40.343 0.071-81.424 0.071-122.504 0.071q-81.659-159.311-162.818-318.622c-11.523-22.544-24.047-44.587-34.067-68.133h106.207c11.523 22.043 22.043 44.086 33.566 66.129h139.272c3.006-22.043 3.006-44.086 5.511-66.129 35.569 0 71.139 0 106.708 0-12.524 129.252-24.548 255.499-35.569 386.755zM2871.609 586.771c28.556 54.607 54.607 110.215 82.661 165.323 2.143-6.88 3.418-14.797 3.506-22.999 3.006-47.639 7.014-95.232 9.519-142.324-31.562-0.501-61.62-1.503-95.687 0z" />
<glyph unicode="&#xe90a;" horiz-adv-x="3106" d="M2739.851 772.133c-1.447 18.427-11.842 34.146-26.797 42.945-26.647 10.737-57.242 16.885-89.274 16.885-6.579 0-13.097-0.259-19.545-0.768-23.195 0.054-49.246 0.054-70.788 0.054-36.070 0-72.141 0-108.211 0-27.554-128.751-54.607-258.004-82.661-386.254 34.568 0 69.135 0 104.204 0 7.014 30.56 13.025 61.62 19.037 92.681 0 4.509 0 12.023 8.517 10.521h70.638c1.444 0.164 3.118 0.258 4.813 0.258 11.192 0 21.432-4.078 29.315-10.829 3.524-6.677 5.63-14.663 5.63-23.141 0-4.579-0.614-9.015-1.765-13.23-3.926-18.185-7.433-37.222-11.942-55.758 34.067 0 68.634 0 102.701 0 6.012 26.552 11.523 53.104 17.033 80.157 1.459 4.737 2.299 10.183 2.299 15.824 0 12.984-4.45 24.928-11.908 34.392-12.765 11.099-29.692 17.939-48.217 17.939-0.63 0-1.258-0.008-1.884-0.024 21.243 6.619 39.487 14.607 56.643 24.297 21.554 18.781 37.076 46.503 40.59 77.857 7.37 22.173 11.595 47.081 11.595 72.974 0 1.133-0.008 2.264-0.024 3.392zM2624.626 692.477c-2.323-15.918-7.248-30.268-14.361-43.248-6.977-8.068-17.882-13.582-30.075-13.582-1.465 0-2.911 0.080-4.335 0.235l-86.493-0.016c7.014 34.568 13.526 69.135 22.043 103.202 29.558 0 59.616 0 89.675 0 1.298 0.243 2.791 0.382 4.316 0.382 8.681 0 16.309-4.506 20.674-11.306 1.134-4.614 1.75-9.799 1.75-15.128 0-7.337-1.168-14.402-3.329-21.017z" />
<glyph unicode="&#xe90b;" horiz-adv-x="3106" d="M968.391 168.454c-4.293-33.358-19.374-62.584-41.574-84.659-19.867-17.135-45.922-27.567-74.415-27.567-0.436 0-0.871 0.002-1.306 0.007-36.978 2.597-71.101 12.863-101.463 29.211-57.026 30.21-106.721 69.036-148.56 115.123-68.156 71.015-125.285 152.483-168.768 241.816-19.81 39.182-36.764 79.435-50.732 121.058-19.538 53.816-30.434 108.716-31.878 165.964-0.174 4.001-0.266 7.937-0.266 11.894 0 33.862 6.719 66.155 18.897 95.618 9.809 21.261 27.227 39.488 48.88 50.654 18.131 8.478 38.654 13.259 60.295 13.259 11.886 0 23.436-1.442 34.483-4.162 35.137-8.478 66.93-22.64 95.282-41.554 39.398-25.881 74.651-54.767 106.587-86.95-37.175 42.769-77.876 80.768-122.193 114.232-45.497 37.147-98.147 63.368-155.851 76.142-11.971 2.651-22.889 3.908-34.101 3.908-33.001 0-63.458-10.89-87.974-29.273-29.77-27.706-49.881-66.136-54.168-109.223-2.309-20.12-3.593-42.599-3.593-65.378 0-61.468 9.35-120.752 26.705-176.507-1.747 4.198-2.479 4.196-3.212 4.196-30.834 0-60.642 4.394-88.832 12.589-65.98 17.793-123.459 38.144-178.909 62.282l-1.203 2.286-10.521-1.002c8.388-15.808 17.531-29.428 27.893-42.005 18.099-18.969 40.473-34.43 65.523-44.705 35.769-16.755 75.987-30.248 117.967-38.926 28.894-7.219 58.277-11.539 88.486-12.614 52.151-138.9 121.805-258.866 208.373-364.43 41.883-50.042 89.324-96.371 141.048-137.549 53.396-44.29 116.867-74.308 186.571-85.877l32.335-0.312c35.303 4.945 65.566 23.362 85.942 49.793 25.437 37.64 40.47 83.653 40.47 133.176 0 3.132-0.060 6.25-0.179 9.353-0.459 73.215-12.149 143.977-33.43 210.449 8.033-35.033 11.845-69.535 11.845-104.928 0-23.062-1.618-45.745-4.747-67.944z" />
<glyph unicode="&#xe90c;" horiz-adv-x="3106" d="M1284.008 492.587c-36.35 29.189-79.322 51.882-126.161 65.485-39.44 12.789-82.483 21.82-126.935 26.011-13.926 0.183-25.448 0.183-36.47 0.183h-574.622c2.505-9.519 5.511-19.037 8.517-28.055l11.523-32.063h392.266c17.029-37.185 42.262-68.040 73.52-91.236 25.945-19.787 54.823-36.596 85.707-49.575 12.396-6.743 23.909-10.813 36.192-12.438 46.766 1.8 90.52 7.005 133.143 15.366 30.315 5.525 61.77 14.381 91.915 25.891 22.889 9.292 49.441 19.312 74.99 32.337-12.649 18.284-27.024 34.091-43.23 47.801zM1105.159 492.587c-23.482 12.232-41.899 31.457-52.802 54.886 0.492 0.736 1.429 0.744 2.367 0.744 11.108 0 21.958-1.102 32.447-3.203 49.504-8.918 94.608-26.394 134.961-50.909 24.947-13.825 47.040-27.755 68.341-42.734-64.579 14.163-124.696 27.689-185.315 40.715z" />
<glyph unicode="&#xe90d;" horiz-adv-x="3106" d="M1457.346 297.706c6.4 1.024 13.779 1.608 21.294 1.608 19.422 0 37.932-3.905 54.787-10.974l-7.447-15.684-3.507-9.018c-12.308 5.432-26.659 8.594-41.75 8.594-7.387 0-14.598-0.758-21.558-2.2-26.143-12.053-44.466-38.604-44.466-69.435 0-1.086 0.023-2.167 0.068-3.242-1.085-6.847-1.701-14.922-1.701-23.142s0.617-16.295 1.806-24.183c5.783-22.191 22.142-40.529 43.486-49.038 5.674-1.805 11.636-2.746 17.817-2.746 14.16 0 27.167 4.937 37.394 13.183 2.517 3.377 6.104 5.994 10.254 7.382 5.663-6.97 10.172-14.484 16.183-20.997-16.971-16.25-40.037-26.254-65.44-26.254-2.181 0-4.345 0.074-6.49 0.219-35.662 0.893-66.066 23.687-78.166 55.502l-5.708 17.124c0 7.014 0 14.528-4.008 21.542-0.916 6.097-1.439 13.132-1.439 20.29s0.523 14.193 1.533 21.070l-0.094 12.245 6.012 19.037 6.012 12.524c12.917 24.704 36.595 42.261 64.641 46.53z" />
<glyph unicode="&#xe90e;" horiz-adv-x="3106" d="M2588.556 290.693c12.111 5.036 26.18 7.96 40.931 7.96 22.025 0 42.528-6.52 59.683-17.735l-4.426-9.262c-2.311-5.93-5.178-11.053-8.642-15.706-11.261 7.733-24.861 12.906-39.512 14.661-3.037 0.384-6.039 0.578-9.087 0.578-15.593 0-29.997-5.088-41.643-13.695-12.774-11.608-22.273-26.957-26.726-44.328-0.841-8.861-1.905-16.225-3.357-23.449 0.215-3.227 0.215-7.736 0.215-12.245 0.658-21.763 8.484-41.578 21.183-57.293 12.047-13.768 29.869-22.531 49.739-22.531 15.235 0 29.266 5.152 40.447 13.808-0.152 17.421-0.152 34.455-0.152 49.985h-30.059c0 8.517 0 16.532 0 25.049h61.119c0-31.562 0-63.123 0-95.186-21.107-14.084-47.057-22.475-74.967-22.475-6.957 0-13.792 0.521-20.469 1.527-32.682 6.306-59.398 29.862-70.19 60.873l-3.204 10.173c0 7.014-2.505 14.027-4.509 21.041-0.422 5.621-0.663 12.176-0.663 18.787s0.241 13.165 0.714 19.655c-0.051 5.143 2.454 11.656 4.458 17.667v7.014c9.403 29.614 30.849 53.025 58.437 64.868z" />
<glyph unicode="&#xe90f;" horiz-adv-x="3106" d="M2997.855 281.675c11.111 9.958 25.87 16.045 42.050 16.045 2.837 0 5.631-0.187 8.369-0.55 0.874 0.090 2.275 0.121 3.684 0.121 15.359 0 29.846-3.736 42.601-10.349l-9.533-26.81c-11.451 7.257-25.394 11.565-40.344 11.565-5.404 0-10.676-0.563-15.761-1.633-7.553-3.115-13.906-9.142-17.454-16.743-0.521-2.876-0.769-5.956-0.769-9.094 0-7.807 1.54-15.255 4.332-22.056 19.971-13.984 43.072-28.274 67.101-41.049 15.497-14.232 22.951-31.362 22.951-50.234 0-0.532-0.006-1.062-0.018-1.591-1.617-26.116-19.242-47.8-43.144-55.409-9.348-3.2-19.614-4.978-30.294-4.978-18.866 0-36.437 5.547-51.17 15.099 4.375 8.294 7.882 16.81 10.888 25.327 12.394-7.225 27.086-11.922 42.771-13.008 1.615-0.184 3.122-0.279 4.651-0.279 15.334 0 28.433 9.568 33.653 23.060 1.168 3.501 1.793 7.248 1.793 11.141 0 11.153-5.133 21.107-13.166 27.629-19.604 14.58-44.653 20.091-63.69 36.122-11.546 10.977-18.728 26.45-18.728 43.601 0 17.392 7.386 33.060 19.192 44.037z" />
<glyph unicode="&#xe910;" horiz-adv-x="3106" d="M1030.012 268.65c0 8.517 0 17.033 0 25.55h172.337c0-8.517 0-17.033 0-25.55-24.548 0-50.098 0-73.143 0v-191.875h-30.059c0 63.624 0 127.75 0 191.374-23.045 0.501-47.092-0.501-69.135 0.501z" />
<glyph unicode="&#xe911;" horiz-adv-x="3106" d="M1228.399 76.274q0 109.213 0 217.926h130.254v-26.051c-34.067 0-67.632 0-100.196 0v-8.517c-0.824-7.513-1.295-16.226-1.295-25.049s0.47-17.536 1.387-26.115l71.047 1.066c0-8.517 0-17.033 0-25.55h-70.137c-4.008-25.55 0-50.098 0-78.153 33.065-3.507 66.129 0 100.196 0v-26.552h-131.256z" />
<glyph unicode="&#xe912;" horiz-adv-x="3106" d="M1574.575 294.2h28.556c0-29.057 0-57.613 0-86.669h100.196c0 29.057 0 57.613 0 86.669 4.659 0.528 10.060 0.83 15.53 0.83s10.871-0.301 16.185-0.888c-0.655-72.082-0.655-143.722-0.655-215.863h-31.061c0 35.569 0 70.638 0 106.207h-100.196c0-35.068 0-70.638 0-105.706h-28.556c0 68.634 0 142.779 0 215.421z" />
<glyph unicode="&#xe913;" horiz-adv-x="3106" d="M1774.967 294.2h11.523c35.569-50.098 70.638-100.196 106.708-146.286l3.006-4.509c0 50.098 0 100.196 0 150.294h28.556c0-73.644 0-147.789 0-221.432-0.782-0.167-1.679-0.262-2.6-0.262-4.902 0-9.171 2.707-11.394 6.708l-108.245 150.36c0-50.098 0-103.703 0-155.804h-27.554c0 74.145 0 148.29 0 220.932z" />
<glyph unicode="&#xe914;" horiz-adv-x="3106" d="M2175.75 103.828c0 63.624 0 127.249 0 190.873h28.556q0-95.687 0-191.374h100.196v-26.552h-128.751c0 8.517 0 18.035 0 27.053z" />
<glyph unicode="&#xe915;" horiz-adv-x="3106" d="M2747.867 76.274q0 109.213 0 217.926h30.059v-217.926h-30.059z" />
<glyph unicode="&#xe916;" horiz-adv-x="3106" d="M2826.521 294.2h129.252v-26.051h-100.196c0-20.039 0-40.579 0-60.618h72.141c0-8.517 0-17.033 0-25.049h-72.141c0-26.552 0-53.104 0-79.155h100.196v-26.552c-43.084 0-86.168 0-129.753 0q0.501 108.712 0.501 217.425z" />
<glyph unicode="&#xe917;" horiz-adv-x="3106" d="M2135.671 232.579c-5.18 23.042-19.193 42.129-38.212 53.897-14.432 7.376-31.045 11.574-48.639 11.574-10.826 0-21.281-1.59-31.144-4.549-15.938-5.424-29.525-16.575-38.13-31.037-13.424-22.266-21.26-48.761-21.26-77.087 0-11.501 1.292-22.701 3.738-33.461 4.644-27.292 19.99-51.333 41.604-67.424 13.617-8.345 29.749-13.166 47.006-13.166 8.145 0 16.040 1.074 23.549 3.088 28.976 7.361 52.015 29.736 60.336 58.373 4.681 16.012 7.288 33.719 7.288 52.036 0 16.975-2.239 33.427-6.439 49.077zM2110.622 182.481c0.087-1.515 0.137-3.286 0.137-5.070 0-24.532-9.379-46.874-24.748-63.634-10.024-8.817-23.348-14.24-37.938-14.24-4.285 0-8.461 0.468-12.479 1.355-20.669 8.417-36.006 27.079-39.647 49.656-2.621 10.616-4.097 22.378-4.097 34.484 0 20.998 4.439 40.96 12.431 58.997 4.977 11.808 15.697 21.378 28.876 25.046 5.361 1.502 11.157 2.323 17.144 2.323 16.947 0 32.358-6.574 43.823-17.311 10.988-16.19 17.565-36.21 17.565-57.765 0-5.237-0.388-10.383-1.137-15.412z" />
<glyph unicode="&#xe918;" horiz-adv-x="3106" d="M2494.372 237.088c-5.359 18.306-15.888 33.699-29.885 44.953-16.383 10.759-36.242 17.080-57.579 17.080-6.089 0-12.057-0.515-17.865-1.503-20.742-3.608-38.602-16.202-49.293-33.661-13.664-22.133-21.653-48.581-21.653-76.895 0-11.21 1.252-22.127 3.624-32.619 4.082-28.474 19.967-53.576 42.588-69.941 13.082-7.571 28.397-11.911 44.727-11.911 6.985 0 13.785 0.794 20.314 2.297 29.865 6.307 53.921 28.531 62.858 57.4 5.735 17.137 8.953 36.187 8.953 55.988 0 17.383-2.48 34.186-7.105 50.076zM2463.812 140.9c-6.447-24.4-28.323-42.097-54.332-42.097-0.449 0-0.897 0.005-1.343 0.016-0.784-0.060-1.776-0.094-2.776-0.094-14.729 0-27.751 7.306-35.641 18.492-9.597 14.321-15.902 31.398-17.595 49.811-1.155 6.9-1.798 14.358-1.798 21.966s0.642 15.066 1.876 22.323c1.226 18.602 8.973 35.956 21.002 49.397 9.826 7.505 22.382 12.074 36.005 12.074 6.256 0 12.286-0.964 17.952-2.75 19.708-5.931 34.821-22.548 38.602-43.129 3.032-12.083 4.742-25.562 4.742-39.441 0-16.598-2.446-32.624-6.997-47.738z" />
<glyph unicode="&#xe919;" glyph-name="ico_anrasymbol" horiz-adv-x="1328" d="M968.539 168.552c-4.315-33.319-19.377-62.511-41.537-84.579-19.866-17.176-45.943-27.636-74.463-27.636-0.474 0-0.946 0.003-1.418 0.009-36.92 2.701-70.961 13.007-101.265 29.352-56.861 30.194-106.421 68.96-148.158 114.954-68.207 70.466-125.458 151.253-169.238 239.885-20.103 39.179-37.336 79.446-51.573 121.102-19.554 53.83-30.424 108.761-31.831 166.039-0.182 4.064-0.278 8.091-0.278 12.14 0 33.747 6.707 65.928 18.86 95.282 9.529 21.167 26.577 39.389 47.846 50.739 18.036 8.394 38.467 13.125 60.003 13.125 12.048 0 23.751-1.481 34.935-4.27 34.969-8.17 66.67-21.989 95.003-40.529 39.088-25.857 74.129-54.708 105.875-86.825-37.087 42.798-77.704 80.834-121.939 114.345-45.414 37.123-97.993 63.345-155.626 76.143-11.462 2.422-21.799 3.546-32.399 3.546-33.49 0-64.358-11.223-89.049-30.113-30.171-27.549-50.645-65.927-55.257-109.048-13.556-80.203 3.574-160.505 21.348-237.594-30.495 0.003-59.984 4.303-87.896 12.329-65.898 17.784-123.296 38.105-178.671 62.203 4.612-1.171 1.463 0.884-1.529 3.138l-10.281-0.152v-1.499c8.422-15.704 17.583-29.239 27.952-41.736 18.088-18.906 40.426-34.303 65.427-44.53 35.541-16.661 75.501-30.113 117.206-38.813 29.063-6.838 58.523-10.707 88.781-11.32 51.884-138.929 121.571-258.932 208.175-364.527 41.707-50.419 88.937-97.038 140.478-138.518 53.243-44.609 116.732-74.96 186.522-86.798l32.282-0.323c34.805 4.447 64.833 22.018 85.462 47.507 25.384 37.543 40.406 83.511 40.406 132.987 0 3.171-0.062 6.328-0.184 9.469-0.469 73.25-12.179 144.043-33.489 210.541 8.667-36.401 12.843-72.465 12.843-109.504 0-19.918-1.208-39.554-3.554-58.839zM1284.818 492.754c-36.283 29.093-79.162 51.724-125.89 65.309-40.016 12.917-83.677 21.936-128.775 25.962-13.647 0.165-25.211 0.165-36.56 0.165q-287.371 0-574.528 0c2.57-9.422 5.353-18.844 8.351-28.266s7.709-21.414 11.777-32.12c130.837 0 261.675 0 392.512 0 17.101-37.104 42.383-67.879 73.671-90.989 26.013-20.59 54.914-38.090 85.907-51.708 12.314-6.849 23.812-11.003 36.093-12.712 47.376 2.056 91.508 7.572 134.473 16.298 30.137 5.554 61.474 14.457 91.505 25.995 22.685 9.473 49.452 20.18 74.72 32.171-12.48 19.006-26.769 35.404-42.986 49.661zM1106.014 492.754c-24.811 11.365-44.496 30.358-56.439 53.936 0.247 0.675 0.902 0.679 1.558 0.679 11.466 0 22.657-1.173 33.461-3.406 49.413-8.484 94.551-25.542 135.009-49.638 24.808-14.031 46.906-28.198 68.198-43.419-61.871 14.867-122.257 28.143-182.643 41.205z" />
<glyph unicode="&#xe91a;" glyph-name="ico_automatic" d="M512 649.166c-0.946 0.017-2.061 0.026-3.179 0.026-107.726 0-195.055-87.329-195.055-195.055 0-1.403 0.015-2.802 0.044-4.198-0.029-0.979-0.044-2.379-0.044-3.781 0-107.726 87.329-195.055 195.055-195.055 1.118 0 2.233 0.009 3.347 0.028 0.778-0.019 1.894-0.028 3.011-0.028 107.726 0 195.055 87.329 195.055 195.055 0 1.403-0.015 2.802-0.044 4.198 0.029 0.979 0.044 2.379 0.044 3.781 0 107.726-87.329 195.055-195.055 195.055-1.118 0-2.233-0.009-3.347-0.028zM429.419 315.871v264.258l198.194-132.129zM1024 355.84v188.614c-89.517 34.354-115.613 34.354-128 64.248s4.294 51.365 46.906 137.084l-136.588 132.129c-85.388-42.777-106.694-59.954-136.588-47.071s-34.023 39.143-63.917 129.156h-187.623c-34.188-85.719-34.188-111.319-63.917-124.201-34.188-12.883-51.2 4.294-136.588 42.777l-132.129-132.129c42.612-90.013 59.788-107.19 46.906-137.084-16.516-30.059-42.612-30.059-132.129-64.248v-189.275c89.517-34.354 115.613-34.354 128-64.248s-4.294-51.365-46.906-137.084l136.588-132.129c85.388 42.777 106.694 59.954 136.588 47.071 29.894-16.516 29.894-42.777 64.083-132.129h187.128c34.188 90.013 34.188 115.613 64.083 128.495s51.2-4.294 136.588-47.071l132.129 132.129c-42.612 85.719-59.788 107.19-46.906 137.084 16.681 33.693 42.777 33.693 132.294 67.881zM814.906 321.652c-25.6-59.954-4.294-107.19 21.306-154.261l-46.906-47.071c-46.906 21.471-93.812 47.071-153.6 21.471s-76.8-73.662-93.812-124.366h-64.083c-16.516 51.365-34.188 99.097-93.812 124.201s-106.694 0-153.6-21.471l-46.906 47.071c25.6 47.071 46.906 94.307 21.306 154.261s-72.671 76.965-123.706 94.307v64.413c51.035 17.342 98.106 33.858 123.706 94.142s4.294 107.19-21.306 154.261l47.732 47.236c46.906-21.471 93.812-47.071 153.6-21.471s75.974 73.497 92.986 124.201h64.083c16.516-51.365 34.188-99.097 93.812-124.201s106.694 0 153.6 21.471l46.906-47.071c-25.6-47.071-46.906-94.307-21.306-154.261s72.506-77.13 123.706-94.307v-64.248c-51.2-17.507-98.106-34.023-123.706-94.307z" />
<glyph unicode="&#xe91b;" glyph-name="ico_battery_0" horiz-adv-x="2048" d="M1621.223 789.223v-682.446h-1450.446v682.446h1450.446zM1792 960h-1792v-1024h1792v1024zM1877.223 192h64.083c0 0 0 0 0 0 58.926 0 106.694 47.769 106.694 106.694v297.29c0 58.926-47.769 106.694-106.694 106.694h-64.083v-512zM1160.423 618.777l-171.107-170.777 171.107-170.777-93.481-93.481-170.777 170.777-171.107-170.777-93.151 93.481 170.777 170.777-170.777 170.777 93.151 93.481 171.107-170.777 170.777 170.777 93.481-93.481z" />
<glyph unicode="&#xe91c;" glyph-name="ico_battery_1" horiz-adv-x="2048" d="M1621.223 789.223v-682.446h-1450.446v682.446h1450.446zM1792 960h-1792v-1024h1792v1024zM1877.223 192h64.083c0 0 0 0 0 0 58.926 0 106.694 47.769 106.694 106.694v297.29c0 58.926-47.769 106.694-106.694 106.694h-64.083v-512zM256 704h256v-512h-256v512z" />
<glyph unicode="&#xe91d;" glyph-name="ico_battery_2" horiz-adv-x="2048" d="M1621.223 789.223v-682.446h-1450.446v682.446h1450.446zM1792 960h-1792v-1024h1792v1024zM1877.223 192h64.083c0 0 0 0 0 0 58.926 0 106.694 47.769 106.694 106.694v297.29c0 58.926-47.769 106.694-106.694 106.694h-64.083v-512zM256 704h256v-512h-256v512zM597.223 704h256v-512h-256v512z" />
<glyph unicode="&#xe91e;" glyph-name="ico_battery_3" horiz-adv-x="2048" d="M1621.223 789.223v-682.446h-1450.446v682.446h1450.446zM1792 960h-1792v-1024h1792v1024zM1877.223 192h64.083c0 0 0 0 0 0 58.926 0 106.694 47.769 106.694 106.694v297.29c0 58.926-47.769 106.694-106.694 106.694h-64.083v-512zM256 704h256v-512h-256v512zM597.223 704h256v-512h-256v512zM938.777 704h256v-512h-256v512z" />
<glyph unicode="&#xe91f;" glyph-name="ico_battery_4" horiz-adv-x="2048" d="M1621.223 789.223v-681.455h-1450.446v681.455h1450.446zM1792 960h-1792v-1024h1792v1024zM1877.223 192h64.083c0 0 0 0 0 0 58.926 0 106.694 47.769 106.694 106.694 0 0 0 0 0 0v297.29c0 58.926-47.769 106.694-106.694 106.694h-64.083v-512zM256 704h256v-512h-256v512zM597.223 704h256v-512h-256v512zM938.777 704h256v-512h-256v512zM1280 704h256v-512h-256v512z" />
<glyph unicode="&#xe920;" glyph-name="ico_batterycharge_dark" horiz-adv-x="2048" d="M0-64h1792v1024h-1792v-1024zM819.2 461.543v242.457l546.023-400.021-375.907 110.988v-222.637l-561.548 382.844zM2048 597.306v-297.29c0-58.926-47.769-106.694-106.694-106.694h-64.083v510.679h64.083cNaNNaNNaNNaNNaNNaNNaNNaNNaNNaNNaNNaNNaNNaNNaNNaNNaNNaNNaNNaNNaNNaNNaNNaNNaNNaNz" />
<glyph unicode="&#xe921;" glyph-name="ico_batterycharge_light" horiz-adv-x="2048" d="M1621.223 789.223v-681.455h-1450.446v681.455h1450.446zM1792 960h-1792v-1024h1792v1024zM1877.223 192h64.083c0 0 0 0 0 0 58.926 0 106.694 47.769 106.694 106.694 0 0 0 0 0 0v297.29c-0.188 58.783-47.884 106.364-106.694 106.364 0 0 0 0-0.001 0h-64.083v-512zM426.777 574.844l561.548-382.844v222.637l376.237-110.658-545.363 398.369v-242.457z" />
<glyph unicode="&#xe922;" glyph-name="ico_calendar" d="M1024 874.612v-938.612h-1024v938.612h128v-42.612c-0.053-1.121-0.083-2.434-0.083-3.754 0-47.159 38.23-85.388 85.388-85.388s85.388 38.23 85.388 85.388c0 1.32-0.030 2.634-0.089 3.94l0.007 42.426h426.777v-42.612c-0.053-1.121-0.083-2.434-0.083-3.754 0-47.159 38.23-85.388 85.388-85.388s85.388 38.23 85.388 85.388c0 1.32-0.030 2.634-0.089 3.94l0.007 42.426h128zM938.612 618.612h-853.223v-597.223h853.223v597.223zM853.388 917.388c0 23.579-19.115 42.694-42.694 42.694s-42.694-19.115-42.694-42.694v-85.388c0-23.579 19.115-42.694 42.694-42.694s42.694 19.115 42.694 42.694v85.388zM256 832c0-23.579-19.115-42.694-42.694-42.694s-42.694 19.115-42.694 42.694v85.388c0 23.579 19.115 42.694 42.694 42.694s42.694-19.115 42.694-42.694v-85.388zM541.234 256.743c0.051 1.026 0.080 2.229 0.080 3.438 0 31.24-19.403 57.947-46.815 68.729 20.975 11.858 35.307 34.255 35.307 60 0 1.497-0.048 2.984-0.144 4.457 0.010 57.275-55.979 91.464-110.152 91.464-63.092 0-110.493-39.474-113.466-117.925h70.194c0 33.032 11.561 56.155 43.768 56.155 0.841 0.068 1.82 0.107 2.808 0.107 20.432 0 36.996-16.564 36.996-36.996 0-0.038 0-0.075 0-0.113 0-32.201-34.849-36.825-66.065-34.017v-54.668c45.585 0 72.671-2.808 72.671-41.951 0.019-0.482 0.030-1.047 0.030-1.615 0-23.899-19.374-43.272-43.272-43.272-1.173 0-2.335 0.047-3.485 0.138-34.863-0.010-49.397 26.251-50.553 61.926h-70.359c-1.486-80.764 48.062-123.21 121.228-123.21 65.734 0 121.228 40.134 121.228 107.355zM725.223 149.388v329.166h-59.458c-7.432-49.548-42.446-63.587-92.655-62.266v-57.476h79.277v-209.425h73.001z" />
<glyph unicode="&#xe923;" glyph-name="ico_camera_dark" horiz-adv-x="1229" d="M256.050 857.739h-153.59v51.131h153.59v-51.131zM870.41 396.968c0-113.064-91.657-204.721-204.721-204.721s-204.721 91.657-204.721 204.721c0 112.994 91.544 204.608 204.512 204.721 0.011 0 0.011 0 0.011 0 113.104 0 204.806-91.632 204.919-204.71zM819.279 396.968c0 84.825-68.765 153.59-153.59 153.59s-153.59-68.765-153.59-153.59c0-84.825 68.765-153.59 153.59-153.59 84.74 0.113 153.392 68.834 153.392 153.59 0 0 0 0 0 0zM1228.721 806.41v-870.212h-1228.721v870.212h303.613c0.030 0 0.066 0 0.101 0 35.355 0 66.519 17.942 84.885 45.217l72.171 108.373h409.64l71.94-108.009c18.597-27.64 49.761-45.582 85.116-45.582 0.036 0 0.071 0 0.107 0h201.148zM256.050 601.689c0 28.239-22.892 51.131-51.131 51.131s-51.131-22.892-51.131-51.131c0-28.239 22.892-51.131 51.131-51.131s51.131 22.892 51.131 51.131zM972.671 396.968c0 169.651-137.529 307.18-307.18 307.18s-307.18-137.529-307.18-307.18c0-169.651 137.529-307.18 307.18-307.18s307.18 137.529 307.18 307.18z" />
<glyph unicode="&#xe924;" glyph-name="ico_camera_light" horiz-adv-x="1229" d="M256.050 857.739h-153.59v51.131h153.59v-51.131zM815.712 857.739l41.618-62.427c37.151-55.277 99.448-91.163 170.127-91.163 0.109 0 0.217 0 0.326 0h99.074v-665.689h-1024.396v665.689h201.153c0.092 0 0.2 0 0.309 0 70.679 0 132.975 35.886 169.663 90.432l41.685 63.158h300.244zM870.41 960.198h-409.64l-71.94-108.009c-18.597-27.64-49.761-45.582-85.116-45.582-0.036 0-0.071 0-0.107 0h-303.607v-870.41h1228.721v870.212h-201.153c-0.030 0-0.066 0-0.101 0-35.355 0-66.519 17.942-84.885 45.217zM307.18 550.559c0 28.239-22.892 51.131-51.131 51.131s-51.131-22.892-51.131-51.131c0-28.239 22.892-51.131 51.131-51.131s51.131 22.892 51.131 51.131zM665.491 550.559c84.825 0 153.59-68.765 153.59-153.59s-68.765-153.59-153.59-153.59c-84.825 0-153.59 68.765-153.59 153.59 0.113 84.78 68.81 153.477 153.579 153.59zM665.491 653.018c-141.412 0-256.050-114.637-256.050-256.050s114.637-256.050 256.050-256.050c141.412 0 256.050 114.637 256.050 256.050-0.113 141.327-114.707 255.851-256.049 255.851 0 0 0 0 0 0z" />
<glyph unicode="&#xe925;" glyph-name="ico_alert" horiz-adv-x="1222" d="M554.765 960h94.596v-247.526h-94.596v247.526zM979.264 333.697l242.599 48.875-18.722 92.625-242.599-48.875 18.722-92.625zM1070.707 746.174l-66.808 66.808-175.002-175.002 66.808-66.808 175.002 175.002zM261.321 426.322l-242.599 48.875-18.722-92.625 242.599-48.875 18.722 92.625zM927.433 89.718l-83.757 455.637c-9.065 49.466-62.67 86.516-120.413 86.516h-194.71c-57.743 0-111.347-37.050-120.413-86.516l-83.757-455.637c0-3.35 0-6.306 0-47.101h-114.895v-107.012h832.64v106.42h-113.909c-0.394 41.386-0.197 44.342-0.788 47.692zM614.479 93.266v471.6h86.91c44.736 0 86.516-28.773 93.413-67.005l65.035-353.552c0-2.562 0-5.124 0-50.451h-245.358zM392.967 637.98l-175.002 175.002-66.808-66.808 175.002-175.002 66.808 66.808z" />
<glyph unicode="&#xe926;" glyph-name="ico_caution_dark" d="M512 960l-512-512 512-512 512 512zM512 391.515l-105.208-105.208-56.485 56.485 105.208 105.208-105.043 105.043 56.485 56.485 105.043-105.043 105.043 105.043 56.485-56.485-105.043-105.043 105.043-105.043-56.485-56.485z" />
<glyph unicode="&#xe927;" glyph-name="ico_circle_dark" d="M1024 448c0-282.77-229.23-512-512-512s-512 229.23-512 512c0 282.77 229.23 512 512 512s512-229.23 512-512z" />
<glyph unicode="&#xe928;" glyph-name="ico_circle_light" d="M512 877.419c237.162 0 429.419-192.258 429.419-429.419s-192.258-429.419-429.419-429.419c-237.162 0-429.419 192.258-429.419 429.419s192.258 429.419 429.419 429.419zM512 960c-282.77 0-512-229.23-512-512s229.23-512 512-512c282.77 0 512 229.23 512 512s-229.23 512-512 512v0z" />
<glyph unicode="&#xe929;" glyph-name="ico_client_dark" horiz-adv-x="1229" d="M626.053 269.736c-348.6 0-530.728 61.634-626.053 132.187v-465.725h1228.721v457.996c-164.688-113.558-482.372-124.458-602.668-124.458zM716.622 140.126c-2.478-54.615-47.358-97.954-102.36-97.954s-99.882 43.34-102.352 97.732l-0.008 52.146h204.919v-52.914zM0 576.52v127.628h1228.721v-133.376c0-270.913-1228.721-262.788-1228.721 5.747zM460.77 960c0 0 0 0 0 0-56.587 0-102.459-45.873-102.459-102.459v-102.261h102.459v76.894c0 14.119 11.446 25.565 25.565 25.565h256.050c14.119 0 25.565-11.446 25.565-25.565v-76.894h102.459v102.459c0 56.587-45.873 102.459-102.459 102.459 0 0 0 0 0 0h-307.18z" />
<glyph unicode="&#xe92a;" glyph-name="ico_client_light" horiz-adv-x="1229" d="M1126.261 601.689v-78.281c-24.376-35.673-194.812-100.874-500.208-100.874-319.467 0-498.425 69.561-523.792 106.819v72.336h1024zM1228.721 704.149h-1228.721v-178.363c0-137.141 315.107-205.712 626.053-205.712 303.217 0 602.668 65.796 602.668 199.37v184.704zM1126.261 290.744v-252.284h-1023.802v256.050c-39.13 15.697-72.889 34.538-103.823 57.030l1.364-415.341h1228.721v406.865c-29.502-20.061-63.299-37.686-99.109-51.21zM716.82 190.464c-2.478-54.615-47.358-97.954-102.36-97.954s-99.882 43.34-102.352 97.732l-0.008 53.137h204.721v-52.914zM460.77 960c0 0 0 0 0 0-56.587 0-102.459-45.873-102.459-102.459v-102.261h102.459v76.696c0 14.119 11.446 25.565 25.565 25.565h256.050c14.119 0 25.565-11.446 25.565-25.565v-76.696h102.459v102.459c0 56.587-45.873 102.459-102.459 102.459 0 0 0 0 0 0h-307.18z" />
<glyph unicode="&#xe92b;" glyph-name="ico_clock_dark" d="M512 960c-282.77 0-512-229.23-512-512s229.23-512 512-512c282.77 0 512 229.23 512 512s-229.23 512-512 512zM768 362.612h-298.612v341.388h85.388v-256h213.223v-85.388z" />
<glyph unicode="&#xe92c;" glyph-name="ico_clock_light" d="M512 874.612c235.611 0 426.612-191.001 426.612-426.612s-191.001-426.612-426.612-426.612c-235.611 0-426.612 191.001-426.612 426.612 0.282 235.498 191.114 426.33 426.585 426.612zM512 960c-282.77 0-512-229.23-512-512s229.23-512 512-512c282.77 0 512 229.23 512 512s-229.23 512-512 512zM554.612 448v256h-85.223v-341.388h298.612v85.388h-213.388z" />
<glyph unicode="&#xe92d;" horiz-adv-x="2426" d="M947.699 531.54c-0.015 0.316-0.024 0.687-0.024 1.059 0 10.242 6.45 18.977 15.51 22.364l-81.614 218.784 244.555-178.818 83.736 270.38h-75.127c-34.825 0-237.903-57.128-473.849-84.909-35.216-4.304-66.128-7.434-93.909-9.782v53.606c-3.154 10.715-12.901 18.403-24.443 18.403-1.595 0-3.156-0.147-4.67-0.428l-19.407 0.024v13.304c4.889 0.679 8.712 4.502 9.384 9.333l0.007 22.361h56.345c62.606 0 359.985 34.433 375.636 39.129s16.825 21.13 10.173 22.303-205.817-5.478-253.554-6.652c-36.39 0-146.733-6.652-197.992-9.391-4.238 15.979-18.57 27.563-35.607 27.563s-31.37-11.584-35.549-27.306l-3.188-0.257c-55.172 0-151.428-3.522-185.079-5.478-48.128-2.348-246.903-10.956-253.554-12.521s-4.304-18.391 11.739-21.521 313.030-14.086 377.593-10.565l43.824 2.739v-17.999c0.742-4.513 4.156-8.059 8.537-8.987l0.072-13.316h-19.564c-1.357 0.257-2.918 0.404-4.513 0.404-11.542 0-21.288-7.688-24.397-18.223l-0.046-72.959c-21.957-1.432-39.224-19.591-39.224-41.784 0-0.993 0.035-1.978 0.103-2.954-0.007-62.475 78.25-45.649 124.031-45.649s68.084-24.651 142.037-50.476c33.314-12.902 71.867-20.377 112.166-20.377 13.701 0 27.2 0.864 40.446 2.541 3.818 2.252 10.113 3.659 16.736 3.659 12.931 0 24.61-5.361 32.935-13.982 13.708-12.143 5.491-52.837 0.013-80.619l107.213-2.739c7.058 7.956 11.654 18.24 12.511 29.568z" />
<glyph unicode="&#xe92e;" glyph-name="ico_close_dark" d="M512 960c-282.77 0-512-229.23-512-512s229.23-512 512-512c282.77 0 512 229.23 512 512-0.843 282.43-229.57 511.157-511.919 512zM708.212 192l-196.212 196.212-191.917-196.212-64.083 59.788 192.083 196.212-192.083 191.917 59.788 63.917 196.212-191.917 192.083 192.083 64.083-59.788-196.377-196.212 196.212-192.083z" />
<glyph unicode="&#xe92f;" glyph-name="ico_close_light2" d="M512 874.612c235.611 0 426.612-191.001 426.612-426.612s-191.001-426.612-426.612-426.612c-235.611 0-426.612 191.001-426.612 426.612 0.749 235.309 191.302 425.863 426.54 426.611zM512 960c-282.77 0-512-229.23-512-512s229.23-512 512-512c282.77 0 512 229.23 512 512-0.843 282.43-229.57 511.157-511.919 512zM768 273.094l-179.2 174.906 174.906 174.906-76.8 81.094-174.906-179.2-179.2 174.906-76.8-76.8 179.2-174.906-174.906-179.2 76.8-76.8 174.906 179.2 174.906-174.906c4.294 0 81.094 76.8 81.094 76.8z" />
<glyph unicode="&#xe930;" glyph-name="ico_cockpit_dark" horiz-adv-x="1301" d="M170.562 511.043c9.851 19.003 27.046 33.044 47.729 38.485 24.903 8.69 53.098 14.398 82.381 16.026 1.611 0.064 2.564 0.081 3.52 0.081 12.654 0 24.635-2.88 35.323-8.020 45.455-23.075 51.749-63.985 51.749-100.698 0.003-0.268 0.005-0.584 0.005-0.901 0-24.896-11.293-47.154-29.036-61.932l-0.13-0.105c18.33-15.495 29.891-38.504 29.891-64.212 0-25.125-11.042-47.672-28.538-63.051 17.561-14.958 28.7-37.082 28.7-61.808 0-1.016-0.019-2.028-0.056-3.035 0.018-0.448 0.026-1.148 0.026-1.85 0-15.894-4.13-30.824-11.375-43.774 21.213-4.161 52.052-9.826 101.983-16.749 26.557 68.514 91.941 116.209 168.464 116.209s141.906-47.695 168.044-114.98c50.77 5.485 82.869 11.569 103.009 15.974-7.139 12.534-11.347 27.539-11.347 43.528 0 0.629 0.007 1.256 0.019 1.881-0.036 0.782-0.055 1.81-0.055 2.843 0 24.563 10.964 46.565 28.266 61.379-17.847 15.572-29.145 38.349-29.145 63.764s11.298 48.192 29.146 63.581l0.109 0.092c-17.873 14.883-29.166 37.141-29.166 62.037 0 0.317 0.002 0.633 0.005 0.949 0 36.876 6.293 77.575 52.238 100.862 10.213 4.927 22.209 7.806 34.878 7.806 0.941 0 1.878-0.016 2.811-0.047 29.949-1.66 58.143-7.368 84.691-16.596 18.74-5.040 35.673-18.958 45.258-37.32 3.764-9.437 6.072-15.521 3.764-343.008 125.876 22.448 167.834 55.805 167.834 99.862 0 387.488-268.325 692.317-650.359 692.317s-651.198-305.039-651.198-692.317c0-44.057 41.959-77.204 167.834-99.652-3.357 327.277 0 333.151 2.727 342.382zM899.383 817.131c46.346 0 83.917-37.571 83.917-83.917s-37.571-83.917-83.917-83.917c-46.346 0-83.917 37.571-83.917 83.917s37.571 83.917 83.917 83.917zM650.359 817.131c46.346 0 83.917-37.571 83.917-83.917s-37.571-83.917-83.917-83.917c-46.346 0-83.917 37.571-83.917 83.917s37.571 83.917 83.917 83.917zM650.359 572.722c46.346 0 83.917-37.571 83.917-83.917s-37.571-83.917-83.917-83.917c-46.346 0-83.917 37.571-83.917 83.917s37.571 83.917 83.917 83.917c0 0 0 0 0 0zM401.334 817.131c46.346 0 83.917-37.571 83.917-83.917s-37.571-83.917-83.917-83.917c-46.346 0-83.917 37.571-83.917 83.917s37.571 83.917 83.917 83.917zM1090.924 495.518c-5.664 14.056-37.343 19.301-50.141 22.448-23.287 5.664-52.238 12.588-72.379-4.406-11.906-12.444-19.236-29.353-19.236-47.974 0-10.771 2.452-20.969 6.828-30.066 11.568-18.045 31.708-26.227 24.995-52.242-5.035-19.301-27.063-26.014-30.21-46.784-0.456-2.323-0.717-4.994-0.717-7.726 0-8.784 2.699-16.938 7.314-23.677 7.293-6.812 14.15-14.067 20.567-21.704 3.116-5.584 4.758-11.755 4.758-18.31 0-4.948-0.936-9.677-2.64-14.020-5.574-13.795-20.889-19.46-26.344-34.565-1.429-4.606-2.252-9.901-2.252-15.389 0-8.195 1.836-15.962 5.118-22.911 8.171-9.198 16.047-19.675 23.137-30.707 5.046-14.911-4.185-18.687-15.723-22.044-14.951-5.345-32.88-10.009-51.328-13.151-42.659-8.248-83.779-13.703-124.898-18.738-8.997 68.56-67.056 120.941-137.35 120.941-58.865 0-109.15-36.733-129.185-88.526-2.687-6.774-4.854-13.789-6.448-21.019-0.582-4.694-1.172-8.048-1.959-11.325-5.166 0.702-10.212 1.382-15.070 2.548-31.391 3.885-62.44 8.501-94.748 14.165-14.476 2.727-29.161 5.455-43.427 9.231-13.293 1.915-25.208 6.584-35.57 13.418-15.619 14.694 18.787 38.401 23.402 52.457 1.677 4.981 2.645 10.718 2.645 16.68 0 7.058-1.356 13.799-3.822 19.978-5.948 8.418-12.868 16.005-20.676 22.57-4.77 6.111-7.539 13.691-7.539 21.917 0 2.767 0.313 5.461 0.906 8.048 4.307 11.343 11.536 21.003 20.787 28.182 6.571 7.442 10.49 17.112 10.49 27.696s-3.919 20.254-10.386 27.636c-12.127 13.378-24.085 22.4-20.938 41.91s20.979 24.336 27.693 39.441c2.903 7.74 4.584 16.685 4.584 26.022 0 14.487-4.045 28.030-11.068 39.559-22.677 33.231-76.174 16.447-107.434 5.328-8.267-2.002-15.381-6.119-20.977-11.746-2.586-7.3-4.079-15.716-4.079-24.48 0-4.171 0.338-8.264 0.989-12.252-0.059-25.788-0.059-52.012-0.059-78.237q0-97.764 0-195.317 0-41.959 0-85.596c-0.304-3.295-0.477-7.126-0.477-10.998 0-10.997 1.398-21.667 4.027-31.842 9.791-20.716 29.977-36.095 54.010-39.154 26.777-5.28 53.211-10.106 79.645-15.141l182.1-33.357c13.642-1.148 26.209-3.526 38.285-7.054 4.35-3.022 9.214-6.348 13.842-9.96 19.801-11.839 44.064-18.978 69.995-18.978 27.208 0 52.58 7.859 73.97 21.431 3.73 2.955 8.643 5.777 13.909 7.907 7.189 1.915 15.659 3.533 24.286 4.65l90.054 16.271c59.371 10.909 118.743 20.979 177.905 33.147 26.18 2.506 48.030 18.832 58.35 41.512 1.942 7.64 2.952 15.898 2.952 24.392 0 3.462-0.168 6.885-0.495 10.261q0.034 70.272 0.034 140.762c0 80.561 1.678 161.331 0 242.101 0.42 2.522 0.66 5.429 0.66 8.392s-0.24 5.869-0.701 8.701l0.042-0.31zM650.359 798.879c35.802 0 64.826-29.024 64.826-64.826s-29.024-64.826-64.826-64.826c-35.802 0-64.826 29.024-64.826 64.826 0 0 0 0 0 0 0.119 35.755 29.072 64.707 64.815 64.826zM650.359 811.886c-42.986 0-77.833-34.847-77.833-77.833s34.847-77.833 77.833-77.833c42.986 0 77.833 34.847 77.833 77.833-0.119 42.938-34.895 77.714-77.822 77.833zM702.387 748.948c-1.060 3.134-2.195 5.769-3.509 8.294l-15.792-7.455c1.293-2.277 2.433-4.919 3.282-7.688zM620.778 754.822c1.762 2.353 3.692 4.416 5.823 6.251l-12.117 12.84c-2.104-1.94-4.026-3.995-5.789-6.185zM631.897 764.683c2.225 1.313 4.797 2.454 7.504 3.288l-6.455 16.642c-3.039-1.049-5.602-2.183-8.052-3.499zM614.064 741.815c0.838 3.127 1.913 5.846 3.253 8.405l-16.051 6.7c-1.106-2.256-2.175-4.968-3.038-7.77zM675.324 782.095c-2.162 1.176-4.726 2.31-7.384 3.241l-7.091-16.668c2.965-0.903 5.537-2.044 7.934-3.45zM692.317 768.249c-1.849 2.298-3.771 4.354-5.835 6.258l-12.626-11.713c2.181-1.879 4.11-3.942 5.802-6.193zM654.764 788.179h-8.602v-18.042h8.392v18.042zM650.359 698.808c-0.13-0.004-0.282-0.006-0.435-0.006-8.342 0-15.105 6.763-15.105 15.105 0 5.82 3.291 10.871 8.114 13.393l7.426 34.446 7.343-34.406c4.906-2.562 8.197-7.613 8.197-13.433 0-8.342-6.763-15.105-15.105-15.105-0.153 0-0.305 0.002-0.457 0.007zM401.334 799.299c35.44-0.474 63.987-29.313 63.987-64.821 0-35.802-29.024-64.826-64.826-64.826-35.727 0-64.703 28.901-64.826 64.599 0 0.013 0 0.014 0 0.015 0 35.918 29.118 65.036 65.036 65.036 0.221 0 0.442-0.001 0.663-0.003zM401.334 812.306c-42.986 0-77.833-34.847-77.833-77.833s34.847-77.833 77.833-77.833c42.986 0 77.833 34.847 77.833 77.833-0.238 42.848-34.968 77.505-77.822 77.623zM453.363 749.368c-1.060 3.134-2.195 5.769-3.509 8.294l-15.792-7.455c1.293-2.277 2.433-4.919 3.282-7.688zM371.753 755.242c1.723 2.864 3.666 5.341 5.875 7.553l-12.168 12.797c-2.104-1.94-4.026-3.995-5.789-6.185zM382.872 765.102c2.225 1.313 4.797 2.454 7.504 3.288l-6.455 16.642c-3.039-1.049-5.602-2.183-8.052-3.499zM365.040 741.815c0.838 3.127 1.913 5.846 3.253 8.405l-16.051 6.7c-1.106-2.256-2.175-4.968-3.038-7.77zM426.3 782.095c-2.162 1.176-4.726 2.31-7.384 3.241l-7.091-16.668c2.965-0.903 5.537-2.044 7.934-3.45zM443.083 768.249c-1.849 2.298-3.771 4.354-5.835 6.258l-12.417-11.713c2.181-1.879 4.11-3.942 5.802-6.193zM405.53 788.179h-8.392v-18.042h8.392v18.252zM413.292 717.899c-2.243-2.975-5.77-4.878-9.742-4.878-6.72 0-12.168 5.448-12.168 12.168 0 1.684 0.342 3.289 0.961 4.748l-14.716 24.046 23.707-15.315c1.029 0.314 2.212 0.496 3.437 0.496 6.72 0 12.168-5.448 12.168-12.168 0-3.503-1.481-6.661-3.85-8.881zM899.593 798.879c0 0 0 0 0 0 35.802 0 64.826-29.024 64.826-64.826s-29.024-64.826-64.826-64.826c-35.802 0-64.826 29.024-64.826 64.826 0 0 0 0 0 0 0.119 35.755 29.072 64.707 64.815 64.826zM899.593 811.886c-42.986 0-77.833-34.847-77.833-77.833s34.847-77.833 77.833-77.833c42.986 0 77.833 34.847 77.833 77.833s-34.847 77.833-77.833 77.833c0 0 0 0 0 0zM938.614 772.865l-36.504-19.301c-0.458 0.038-0.991 0.060-1.529 0.060-10.775 0-19.511-8.735-19.511-19.511 0-0.538 0.022-1.071 0.064-1.598l-20.984-37.274 37.133 19.721c0.458-0.038 0.991-0.060 1.529-0.060 10.775 0 19.511 8.735 19.511 19.511 0 0.538-0.022 1.071-0.064 1.598zM899.802 726.081c-4.519 0-8.182 3.663-8.182 8.182s3.663 8.182 8.182 8.182c4.519 0 8.182-3.663 8.182-8.182s-3.663-8.182-8.182-8.182c0 0 0 0 0 0zM904.838 787.131v-13.637h-2.727l-5.245 8.811v-8.811h-2.937v13.637h2.937l5.245-8.811v8.811h2.727zM945.328 730.486v3.147h6.294v2.518h-6.294v2.727h6.713v2.937h-9.65v-13.637h9.86v2.308h-6.923zM860.152 741.815l-2.098-9.021-1.259 9.021h-2.727l-2.098-9.021-2.098 9.021h-2.937l3.357-13.637h2.937l2.098 9.021 2.098-9.021h2.727l3.776 13.637h-3.776zM893.719 682.024c0.599-0.142 1.286-0.223 1.993-0.223s1.394 0.081 2.054 0.235c0.195-0.062 0.49-0.091 0.791-0.091 2.429 0 4.42 1.877 4.602 4.26-0.062 2.098-1.562 3.813-3.537 4.207-1.916 0.005-2.546 1.054-2.546 1.893 0.17 0.762 0.839 1.322 1.64 1.322 0.163 0 0.321-0.023 0.47-0.067 0.429 0.11 0.936 0.171 1.457 0.171s1.027-0.061 1.513-0.177l-0.044 2.526c-0.536 0.128-1.151 0.202-1.783 0.202s-1.247-0.074-1.837-0.213c-0.199 0.062-0.489 0.092-0.787 0.092-2.388 0-4.332-1.9-4.404-4.27 0.163-2.116 1.722-3.819 3.748-4.198 1.707-0.004 2.336-1.053 2.336-1.893s0-1.469-2.098-1.469c-0.504-0.117-1.084-0.184-1.678-0.184s-1.174 0.067-1.73 0.194zM610.498 456.287l-13.217 12.797 53.078 53.707 53.287-53.707-13.217-13.637-40.070 40.91z" />
<glyph unicode="&#xe931;" glyph-name="ico_cockpit_light" horiz-adv-x="1303" d="M490.279 128.388h-8.275c-49.648 6.206-80.679 12.412-101.366 16.549l-12.412 2.069 4.137 12.412c6.206 14.481 10.343 28.962 10.343 41.374 0 22.756-8.275 41.374-24.824 55.855l-8.275 8.275 8.275 8.275c0 0 2.069 2.069 4.137 2.069s2.069 2.069 2.069 2.069l2.069 2.069c12.412 14.481 18.618 33.099 16.549 53.786-2.069 18.618-10.343 37.236-24.824 47.58l-10.343 8.275 10.343 8.275c16.549 12.412 24.824 31.030 24.824 53.786 0 33.099-6.206 70.335-45.511 91.022-10.343 4.137-20.687 6.206-33.099 6.206-22.756-2.069-47.58-6.206-78.61-16.549-16.549-4.137-31.030-14.481-41.374-31.030-4.137-10.343-6.206-35.168 2.069-333.059v-12.412l-12.412 2.069c-119.984 22.756-173.77 55.855-173.77 109.64 0 395.119 279.273 693.010 651.636 693.010s651.636-297.891 651.636-693.010c0-53.786-53.786-86.885-173.77-109.64l-12.412-2.069v12.412c2.069 289.616 0 324.784-2.069 333.059-8.275 14.481-22.756 26.893-41.374 31.030-26.893 10.343-57.923 14.481-78.61 16.549-12.412 0-22.756-2.069-31.030-6.206-41.374-20.687-45.511-55.855-45.511-91.022 0-22.756 8.275-41.374 24.824-53.786l8.275-6.206-8.275-10.343c0 0-2.069-2.069-4.137-2.069s-2.069-2.069-2.069-2.069l-2.069-2.069c-12.412-14.481-18.618-31.030-18.618-51.717 2.069-18.618 10.343-37.236 24.824-49.648l8.275-6.206-6.206-10.343c-14.481-14.481-24.824-35.168-24.824-55.855-2.069-14.481 2.069-26.893 8.275-41.374l6.206-12.412-14.481-2.069c-20.687-4.137-51.717-10.343-101.366-16.549h-8.275l-2.069 6.206c-18.618 45.511-51.717 80.679-97.228 97.228-84.816 33.099-182.044-10.343-217.212-97.228l-2.069-6.206zM651.636 264.921c22.756 0 43.442-4.137 66.198-12.412 47.58-18.618 84.816-55.855 105.503-101.366 35.168 4.137 62.061 8.275 78.61 12.412-6.206 12.412-6.206 24.824-6.206 39.305 0 22.756 8.275 43.442 22.756 62.061-14.481 14.481-22.756 35.168-24.824 57.923-2.069 24.824 6.206 47.58 22.756 66.198 0 0 0 2.069 2.069 2.069-14.481 16.549-24.824 37.236-24.824 62.061 0 39.305 6.206 82.747 57.923 107.572 12.412 6.206 26.893 10.343 41.374 10.343 22.756-2.069 55.855-6.206 84.816-16.549 22.756-6.206 41.374-20.687 51.717-41.374 6.206-10.343 8.275-14.481 6.206-328.921 130.327 24.824 144.808 62.061 144.808 86.885 2.069 378.57-268.929 668.186-628.881 668.186s-630.949-289.616-630.949-672.323c0-24.824 14.481-62.061 144.808-86.885-8.275 310.303-6.206 316.509 0 328.921v2.069c12.412 22.756 31.030 37.236 53.786 41.374 28.962 8.275 57.923 14.481 82.747 16.549 0 0 0 0 0 0 16.549 0 28.962-2.069 43.442-10.343 51.717-24.824 57.923-72.404 57.923-107.572 0-24.824-8.275-45.511-24.824-62.061 14.481-14.481 22.756-33.099 24.824-53.786 2.069-24.824-6.206-47.58-20.687-66.198 0-2.069-2.069-2.069-2.069-2.069 16.549-18.618 24.824-39.305 24.824-64.129 0-12.412-2.069-24.824-6.206-37.236 18.618-4.137 43.442-8.275 80.679-12.412 28.962 68.267 97.228 111.709 171.701 111.709zM645.43 389.042c-51.717 0-93.091 41.374-93.091 93.091s41.374 93.091 93.091 93.091 93.091-41.374 93.091-93.091-41.374-93.091-93.091-93.091zM645.43 554.537c-39.305 0-72.404-33.099-72.404-72.404s33.099-72.404 72.404-72.404 72.404 33.099 72.404 72.404-33.099 72.404-72.404 72.404zM891.604 629.010c-51.717 0-93.091 41.374-93.091 93.091s41.374 93.091 93.091 93.091 93.091-41.374 93.091-93.091-41.374-93.091-93.091-93.091zM891.604 794.505c-39.305 0-72.404-33.099-72.404-72.404s33.099-72.404 72.404-72.404 72.404 33.099 72.404 72.404-33.099 72.404-72.404 72.404zM645.43 629.010c-51.717 0-93.091 41.374-93.091 93.091s41.374 93.091 93.091 93.091 93.091-41.374 93.091-93.091-41.374-93.091-93.091-93.091zM645.43 794.505c-39.305 0-72.404-33.099-72.404-72.404s33.099-72.404 72.404-72.404 72.404 33.099 72.404 72.404-33.099 72.404-72.404 72.404zM401.325 629.010c-51.717 0-93.091 41.374-93.091 93.091s41.374 93.091 93.091 93.091 93.091-41.374 93.091-93.091-41.374-93.091-93.091-93.091zM401.325 794.505c-39.305 0-72.404-33.099-72.404-72.404s33.099-72.404 72.404-72.404 72.404 33.099 72.404 72.404-33.099 72.404-72.404 72.404zM1079.855 488.339c-6.206 14.481-37.236 18.618-49.648 22.756-22.756 6.206-51.717 12.412-72.404-4.137-18.618-20.687-24.824-51.717-12.412-76.541 12.412-18.618 31.030-26.893 24.824-51.717-4.137-18.618-26.893-24.824-28.962-45.511-2.069-10.343 0-22.756 6.206-31.030 8.275-6.206 14.481-14.481 20.687-22.756 4.137-10.343 6.206-20.687 2.069-31.030-6.206-14.481-20.687-18.618-26.893-35.168-4.137-12.412-2.069-24.824 2.069-37.236 8.275-10.343 16.549-20.687 22.756-31.030 4.137-14.481-4.137-16.549-16.549-20.687-16.549-6.206-35.168-10.343-51.717-12.412-39.305-8.275-80.679-12.412-122.053-18.618-10.343 74.473-78.61 128.259-153.083 117.915-49.648-6.206-93.091-39.305-109.64-86.885-2.069-6.206-4.137-14.481-6.206-20.687 0-4.137 0-6.206-2.069-10.343-4.137 0-10.343 0-14.481 2.069-31.030 4.137-62.061 8.275-93.091 14.481-14.481 2.069-28.962 6.206-43.442 8.275-12.412 2.069-24.824 6.206-35.168 12.412-16.549 14.481 18.618 37.236 22.756 51.717 4.137 12.412 4.137 24.824 0 35.168-6.206 8.275-12.412 16.549-20.687 22.756-6.206 8.275-8.275 18.618-6.206 28.962 4.137 10.343 10.343 20.687 20.687 28.962 14.481 16.549 14.481 39.305 0 53.786-12.412 12.412-22.756 22.756-20.687 41.374s20.687 24.824 26.893 39.305c8.275 20.687 6.206 45.511-6.206 64.129-22.756 33.099-74.473 16.549-105.503 6.206-8.275-2.069-14.481-6.206-20.687-12.412-4.137-12.412-4.137-22.756-2.069-35.168 0-26.893 0-51.717 0-78.61 0-64.129 0-128.259 0-192.388 0-26.893 0-55.855 0-84.816-2.069-14.481 0-26.893 4.137-41.374 10.343-20.687 31.030-37.236 53.786-39.305 26.893-4.137 51.717-10.343 78.61-14.481l179.976-33.099c12.412 0 24.824-4.137 37.236-6.206 4.137-2.069 10.343-6.206 14.481-10.343 43.442-26.893 99.297-24.824 140.671 2.069 4.137 4.137 10.343 6.206 14.481 8.275 8.275 2.069 16.549 4.137 24.824 4.137l86.885 16.549c57.923 10.343 117.915 20.687 175.838 33.099 24.824 2.069 47.58 18.618 57.923 41.374 2.069 10.343 4.137 22.756 2.069 33.099 0 45.511 0 93.091 0 138.602 0 78.61 2.069 159.289 0 237.899 2.069 8.275 2.069 12.412 0 18.618v0zM645.43 788.299c35.168 0 64.129-28.962 64.129-64.129s-28.962-64.129-64.129-64.129c-35.168 0-64.129 28.962-64.129 64.129v0c2.069 35.168 28.962 64.129 64.129 64.129zM645.43 800.711c-41.374 0-76.541-35.168-76.541-76.541s35.168-76.541 76.541-76.541 78.61 33.099 78.61 76.541v0c0 41.374-35.168 76.541-78.61 76.541zM697.147 738.651c0 2.069-2.069 6.206-4.137 8.275l-16.549-6.206c2.069-2.069 2.069-4.137 4.137-8.275l16.549 6.206zM616.469 744.857c2.069 2.069 4.137 4.137 6.206 6.206l-12.412 12.412c-2.069-2.069-4.137-4.137-6.206-6.206l12.412-12.412zM628.881 753.131c2.069 2.069 4.137 2.069 8.275 4.137l-6.206 16.549c-2.069 0-6.206-2.069-8.275-4.137l6.206-16.549zM610.263 732.444c0 2.069 2.069 6.206 2.069 8.275l-16.549 6.206c-2.069-2.069-2.069-6.206-2.069-8.275l16.549-6.206zM670.255 771.749c-2.069 2.069-4.137 2.069-8.275 4.137l-6.206-16.549c2.069 0 6.206-2.069 8.275-4.137l6.206 16.549zM686.804 757.269c-2.069 2.069-4.137 4.137-6.206 6.206l-12.412-12.412c2.069-2.069 4.137-4.137 6.206-6.206l12.412 12.412zM651.636 777.956h-10.343v-18.618h8.275l2.069 18.618zM645.43 689.002c-8.275 0-14.481 6.206-14.481 14.481 0 6.206 2.069 10.343 8.275 14.481l8.275 33.099 6.206-33.099c8.275-4.137 10.343-12.412 6.206-20.687-2.069-6.206-8.275-8.275-14.481-8.275zM401.325 788.299c35.168 0 64.129-28.962 62.061-64.129s-28.962-64.129-64.129-62.061c-35.168 0-62.061 28.962-62.061 64.129-2.069 33.099 26.893 62.061 64.129 62.061v0zM401.325 800.711c-41.374 0-76.541-35.168-76.541-76.541s35.168-76.541 76.541-76.541 76.541 35.168 76.541 76.541-35.168 76.541-76.541 76.541v0zM453.042 738.651c0 2.069-2.069 6.206-4.137 8.275l-16.549-6.206c2.069-2.069 2.069-4.137 4.137-8.275l16.549 6.206zM372.364 744.857c2.069 2.069 4.137 6.206 6.206 8.275l-12.412 12.412c-2.069-2.069-4.137-4.137-6.206-6.206l12.412-14.481zM382.707 755.2c2.069 2.069 4.137 2.069 8.275 4.137l-6.206 16.549c-2.069 0-6.206-2.069-8.275-4.137l6.206-16.549zM364.089 732.444c0 2.069 2.069 6.206 2.069 8.275l-14.481 6.206c-2.069-2.069-2.069-6.206-2.069-8.275l14.481-6.206zM426.149 771.749c-2.069 2.069-4.137 2.069-8.275 4.137l-6.206-16.549c2.069 0 6.206-2.069 8.275-4.137l6.206 16.549zM442.699 757.269c-2.069 2.069-4.137 4.137-6.206 6.206l-12.412-12.412c2.069-2.069 4.137-4.137 6.206-6.206l12.412 12.412zM405.463 777.956h-8.275v-18.618h8.275v18.618zM411.669 707.62c-4.137-6.206-12.412-6.206-16.549-2.069s-6.206 8.275-4.137 14.481l-14.481 22.756 22.756-14.481c6.206 2.069 12.412-2.069 14.481-8.275 4.137-4.137 2.069-8.275-2.069-12.412v0zM891.604 788.299c35.168 0 64.129-28.962 64.129-64.129s-28.962-64.129-64.129-64.129-64.129 28.962-64.129 64.129v0c0 35.168 28.962 64.129 64.129 64.129zM891.604 800.711c-41.374 0-76.541-35.168-76.541-76.541s35.168-76.541 76.541-76.541 76.541 35.168 76.541 76.541v0c0 41.374-33.099 76.541-76.541 76.541zM930.909 761.406l-35.168-18.618c-10.343 0-20.687-6.206-20.687-18.618v-2.069l-20.687-37.236 37.236 18.618c10.343 0 20.687 6.206 20.687 18.618v2.069l18.618 37.236zM891.604 715.895c-4.137 0-8.275 4.137-8.275 8.275s4.137 8.275 8.275 8.275 8.275-4.137 8.275-8.275v0c0-4.137-4.137-8.275-8.275-8.275zM897.81 775.887v-12.412h-2.069l-6.206 8.275v-8.275h-4.137v12.412h4.137l6.206-8.275v8.275h2.069zM937.115 720.032v4.137h6.206v2.069h-6.206v2.069h6.206v2.069h-10.343v-12.412h10.343v2.069c0 0-6.206 0-6.206 0zM852.299 732.444l-2.069-8.275-2.069 8.275-2.069-8.275-2.069 8.275h-2.069l4.137-12.412h2.069l2.069 8.275 2.069-8.275h2.069l4.137 12.412h-6.206zM885.398 672.453c2.069 0 2.069 0 4.137 0s4.137 2.069 6.206 4.137v0c0 2.069-2.069 4.137-4.137 4.137s-2.069 2.069-2.069 2.069l2.069 2.069h2.069v2.069c-2.069 0-2.069 0-4.137 0s-4.137-2.069-4.137-4.137v0c0-2.069 2.069-4.137 4.137-4.137s2.069 0 2.069-2.069 0-2.069-2.069-2.069-2.069 0-4.137 0v-2.069zM608.194 449.034l-12.412 12.412 51.717 53.786 51.717-53.786-12.412-12.412-39.305 39.305-39.305-39.305z" />
<glyph unicode="&#xe932;" glyph-name="ico_collapse" horiz-adv-x="1638" d="M1433.6 960l204.8-208.5-819.2-815.5-819.2 815.5 204.8 208.764 614.4-614.664z" />
<glyph unicode="&#xe933;" glyph-name="ico_caution_light" d="M512 839.267l391.267-391.267-391.267-391.267-391.267 391.267zM512 960l-512-512 512-512 512 512zM673.528 342.957l-105.043 105.043 105.043 105.043-56.485 56.485-105.043-105.043-105.043 105.043-56.485-56.485 105.043-105.043-105.043-105.043 56.485-56.485 105.043 105.043 105.043-105.043z" />
<glyph unicode="&#xe934;" glyph-name="ico_danger_dark" d="M724.067 960h-424.134l-299.933-299.933v-424.134l299.933-299.933h424.134l299.933 299.933v424.134zM763.871 462.204c-5.45-14.039-72.341-165.161-89.352-204.139-18.149-47.306-63.197-80.277-115.947-80.277-0.521 0-1.042 0.003-1.562 0.010l-112.066-0.001c-67.881 0-103.556 40.299-103.556 110.823v308.026c-0.009 0.271-0.015 0.589-0.015 0.908 0 15.515 12.577 28.092 28.092 28.092 15.195 0 27.573-12.065 28.076-27.138l0.001-134.818c0-11.066 20.315-11.066 20.315 0v215.535c0 17.331 14.050 31.381 31.381 31.381s31.381-14.050 31.381-31.381v-203.974c0.864-4.475 4.75-7.808 9.414-7.808s8.55 3.333 9.404 7.748l0.010 240.37c0 17.194 13.939 31.133 31.133 31.133s31.133-13.939 31.133-31.133v-242.787c0-10.901 19.654-11.066 19.654 0v203.809c0 38.648 68.046 39.804 68.046 0v-231.226c0-14.204 13.874-16.516 19.159-5.615s25.765 56.155 26.095 56.65c6.447 12.841 19.513 21.499 34.601 21.499 21.315 0 38.594-17.279 38.594-38.594 0-6.226-1.474-12.109-4.093-17.316z" />
<glyph unicode="&#xe935;" glyph-name="ico_distance" horiz-adv-x="1085" d="M735.305 780.551c11.905 22.759 21.884 41.842 28.712 55.498l-19.958 7.353-8.754-15.581v-47.27zM742.483 944.769c13.519-11.255 22.060-28.090 22.060-46.919 0-8.334-1.673-16.277-4.702-23.512-1.601-3.975-7.379-15.53-15.607-31.811l20.484-5.952c4.902 9.804 8.579 17.507 9.804 20.484 1.932 4.598 3.459 9.959 4.326 15.538 3.902-12.212 8.454-27.793 13.531-45.126l197.132-64.427v-692.763l-254.206 84.56v103.643c91.612 15.79 160.464 94.531 160.717 189.402v64.104h-64.077v-64.077c-0.367-59.435-40.862-109.31-95.739-123.922l-0.901 379.704c0 1.576 0 75.806 0 77.382v46.744c-16.282-31.338-39.041-74.231-64.077-120.275v-383.759c-55.26 14.977-95.24 64.679-95.24 123.72 0 0.143 0 0.286 0.001 0.429-0.022 23.747-4.386 46.491-12.342 67.467s-20.922 37.554-20.922 39.655c-28.892 42.594-73.452 72.701-125.227 82.107l-1.176 103.82 2.626 1.226 196.432 77.382c15.231 52.522 27.486 93.314 30.988 102.067 2.812 6.742 6.527 12.535 11.076 17.559l-273.509-107.371-383.934 128.153v-896.022l383.934-127.978 320.033 127.978 381.483-128.153v896.022zM352.071 637.341c-91.089-16.318-159.346-94.881-159.491-189.413v-255.972h64.077v255.956c0.278 59.256 40.457 109.051 95.035 123.917l0.904-523.257-256.657 85.786v692.412l255.956-85.786v-103.643zM671.929 154.841l-3.852-1.226-252.105-101.192v519.616c55.704-14.67 96.115-64.59 96.115-123.948 0-0.063 0-0.125 0-0.188 0.192-94.688 68.704-173.326 158.857-189.249l1.159-103.813zM764.892 890.846c-0.731-4.79-1.953-9.091-3.638-13.152-3.19-8.032-22.623-45.323-47.308-91.717 54.798-102.593 131.83-237.924 138.482-235.123s-60.925 252.455-87.536 339.991zM722.875 943.718c-4.201 1.776-9.069 3.018-14.162 3.487l-11.048 0.014c-17.685-2.485-32.177-14.068-38.746-29.788-11.15-26.061-109.191-376.556-100.787-379.882s181.725 316.882 192.58 342.092c2.217 5.4 3.505 11.667 3.505 18.235 0 20.746-12.841 38.492-31.009 45.724zM704.142 879.642c-9.669 0-17.507 7.838-17.507 17.507s7.838 17.507 17.507 17.507c9.669 0 17.507-7.838 17.507-17.507s-7.838-17.507-17.507-17.507z" />
<glyph unicode="&#xe936;" glyph-name="ico_drawpolygon" horiz-adv-x="971" d="M948.026 308.604h-41.786l13.708 312.485h25.435c12.861 0 23.288 10.426 23.288 23.288 0 0 0 0 0 0v160.537c-0.186 12.719-10.54 22.958-23.285 22.958-0.059 0-0.118 0-0.177-0.001h-169.446c-12.861 0-23.288-10.426-23.288-23.288v-8.093l-536.279 113.961v26.261c0 12.861-10.426 23.288-23.288 23.288 0 0 0 0 0 0h-169.786c-12.79-0.094-23.123-10.484-23.123-23.287 0 0 0 0 0-0.001v-160.537c0 0 0 0 0-0.001 0-12.803 10.332-23.194 23.114-23.287h47.741l100.914-609.775h-25.765c-0.147 0.003-0.321 0.005-0.495 0.005-12.861 0-23.288-10.426-23.288-23.288 0-0.002 0-0.004 0-0.006v-160.536c0-0.002 0-0.003 0-0.005 0-12.861 10.426-23.288 23.288-23.288 0.174 0 0.348 0.002 0.521 0.006h169.43c12.861 0 23.288 10.426 23.288 23.288v57.311l416.206 109.667v-1.486c-0.001-0.098-0.002-0.214-0.002-0.33 0-12.861 10.426-23.288 23.288-23.288 0.001 0 0.002 0 0.002 0h169.786c12.861 0 23.288 10.426 23.288 23.288v160.867c0 12.861-10.426 23.288-23.288 23.288 0 0 0 0 0 0zM338.746 101.987v17.837c0 12.861-10.426 23.288-23.288 23.288h-59.954l-100.253 609.775h38.317c12.861 0 23.288 10.426 23.288 23.288s-10.426 23.288-23.288 23.288c-12.861 0-23.288-10.426-23.288-23.288s10.426-23.288 23.288-23.288c12.861 0 23.288 10.426 23.288 23.288v49.548l535.618-113.466v-68.046c0-12.861 10.426-23.288 23.288-23.288h61.44l-13.543-312.32h-45.419c-12.861 0-23.288-10.426-23.288-23.288v-73.662z" />
<glyph unicode="&#xe937;" glyph-name="ico_edit_dark" d="M512 960c-282.77 0-512-229.23-512-512s229.23-512 512-512c282.77 0 512 229.23 512 512s-229.23 512-512 512zM298.612 234.612l42.942 172.263 132.129-132.129zM518.772 314.715l-136.588 136.588 249.228 252.697 136.588-136.588z" />
<glyph unicode="&#xe938;" glyph-name="ico_edit_light" d="M512 874.612c235.611 0 426.612-191.001 426.612-426.612s-191.001-426.612-426.612-426.612c-235.611 0-426.612 191.001-426.612 426.612 0.282 235.498 191.114 426.33 426.585 426.612zM512 960c-282.77 0-512-229.23-512-512s229.23-512 512-512c282.77 0 512 229.23 512 512s-229.23 512-512 512zM341.554 406.875l132.129-132.129-175.071-40.134zM768 567.412l-249.228-252.532-136.588 136.588 249.228 252.532z" />
<glyph unicode="&#xe939;" glyph-name="ico_expand" horiz-adv-x="1638" d="M1433.6-64l204.8 208.764-819.2 815.236-819.2-815.236 204.8-208.764 614.4 614.4z" />
<glyph unicode="&#xe93a;" glyph-name="ico_filter_clear" horiz-adv-x="981" d="M831.092 874.612l-319.092-535.123v-252.697l-42.612 25.6v227.097l-319.092 535.123h680.795zM981.388 960h-981.388l384-644.129v-251.871l213.388-128v379.871zM655.855 586.405l-115.613 113.135 113.135 113.135-49.548 52.521-113.135-115.613-115.613 112.97-49.548-49.548 115.613-113.135-113.135-115.613 49.548-49.548 113.135 115.613 113.135-113.135c2.477-0.495 52.026 49.218 52.026 49.218z" />
<glyph unicode="&#xe93b;" glyph-name="ico_filter_dark" horiz-adv-x="939" d="M0 960h938.777l-384-644.129v-379.871l-170.777 128v251.871z" />
<glyph unicode="&#xe93c;" glyph-name="ico_filter_light" horiz-adv-x="981" d="M831.092 874.612l-319.092-535.123v-252.697l-42.612 25.6v227.097l-319.092 535.123h680.795zM981.388 960h-981.388l384-644.129v-251.871l213.388-128v379.871z" />
<glyph unicode="&#xe93d;" glyph-name="ico_filter_used" horiz-adv-x="939" d="M0 960l384-644.129v-251.871l170.777-128v379.871l384 644.129h-938.777zM788.48 874.612l-127.174-213.388h-383.835l-127.174 213.388h638.183z" />
<glyph unicode="&#xe93e;" glyph-name="ico_flightplan_dark" d="M512 960c-134.276 0-256-109.006-256-243.283 0-199.845 204.139-220.821 256-524.717 51.861 303.897 256 324.872 256 524.717 0 134.276-121.724 243.283-256 243.283zM512 618.612c-47.159 0-85.388 38.23-85.388 85.388s38.23 85.388 85.388 85.388c47.159 0 85.388-38.23 85.388-85.388s-38.23-85.388-85.388-85.388c0 0 0 0 0 0zM1024-64l-286.225 103.556-225.775-103.556-238.163 103.556-273.837-103.556 170.612 384 168.96 67.551c16.074-21.391 31.117-45.576 43.982-71.049l-149.025-62.897-73.662-165.161 113.961 43.107 64.248 114.622-26.921-130.147 178.705-76.305 21.141 86.214 19.819-86.379 177.053 80.599-26.261 129.652 67.055-123.541 116.604-42.116-73.497 169.455-153.6 60.284c14.082 28.239 29.129 52.427 46.138 75.055l170.719-68.944z" />
<glyph unicode="&#xe93f;" glyph-name="ico_flightplan_light" horiz-adv-x="1016" d="M507.904 141.292l-8.028 47.186c-26.706 155.812-93.553 234.947-152.699 304.742-54.395 64.389-101.417 119.931-101.417 217.252 0 135.332 120.095 249.528 262.144 249.528s262.144-114.688 262.144-249.528c0-97.321-47.022-152.863-101.417-217.088-59.146-69.796-125.993-148.931-152.699-304.742zM507.904 944.108c-133.202-0.492-245.76-106.988-245.76-233.636 0-91.259 45.22-144.671 98.304-206.438 55.214-65.536 117.146-138.445 147.456-272.466 31.13 134.021 93.061 207.258 147.456 272.466 52.265 61.768 98.304 114.688 98.304 206.438 0 126.648-112.558 233.144-245.76 233.144zM507.904 605.45c-51.306 0-92.897 41.592-92.897 92.897s41.592 92.897 92.897 92.897c51.306 0 92.897-41.592 92.897-92.897 0.001-0.146 0.001-0.319 0.001-0.492 0-51.306-41.592-92.897-92.897-92.897 0 0-0.001 0-0.001 0zM507.904 774.697c-42.257 0-76.513-34.256-76.513-76.513s34.256-76.513 76.513-76.513c42.257 0 76.513 34.256 76.513 76.513-0.186 42.116-34.371 76.186-76.513 76.186 0 0 0 0-0.001 0zM849.183 316.928l-170.23 67.174c-15.997-21.229-30.922-45.223-43.65-70.514l151.129-62.525 73.564-168.428-116.326 41.779-66.519 122.88 26.214-128.451-175.8-80.118-19.661 85.688-20.972-85.524-177.275 75.694 26.87 128.778-63.734-113.705-113.050-42.762 73.073 163.84 149.094 59.638c-14.024 28.025-28.947 52.016-45.789 74.487l-166.875-67.933-169.247-380.928 271.647 102.728 236.257-102.728 223.969 102.728 283.935-102.728z" />
<glyph unicode="&#xe940;" glyph-name="ico_geofence" d="M896 832h-54.999l-713.001-704.083v-63.917h53.512l714.488 714.488v53.512zM623.814 832l-495.814-490.694v-106.694l604.325 597.388h-108.511zM406.957 830.348l-278.957-273.837v-108.511l384 384-105.043-1.652zM189.275 832l-61.275-64.083v-106.529l169.786 170.612h-108.511zM896 669.812l-605.812-605.812h108.511l497.301 497.301v108.511zM896 452.459l-388.459-388.459h108.511l279.948 279.948v108.511zM896 235.272l-171.272-171.272h108.511l62.761 62.761v108.511z" />
<glyph unicode="&#xe941;" glyph-name="ico_help_dark" d="M512 960c-282.77 0-512-229.23-512-512s229.23-512 512-512c282.77 0 512 229.23 512 512-0.843 282.43-229.57 511.157-511.919 512zM512 179.283c-28.277 0-51.2 22.923-51.2 51.2s22.923 51.2 51.2 51.2c28.277 0 51.2-22.923 51.2-51.2 0.003-0.198 0.004-0.431 0.004-0.665 0-27.912-22.627-50.539-50.539-50.539-0.234 0-0.467 0.002-0.7 0.005zM594.581 435.283c-23.966-20.542-39.056-50.846-39.056-84.675 0-3.974 0.208-7.899 0.614-11.766l-88.898 0.482c0 63.917 0 89.517 64.083 147.159 25.6 25.6 44.759 44.759 38.317 82.581 0 32.041-32.041 51.2-57.641 51.2-32.041 0-63.917-25.6-63.917-82.581h-82.581c0 95.959 57.641 166.317 153.6 166.317 2.379 0.134 5.163 0.211 7.964 0.211 38.717 0 74.018-14.623 100.682-38.648 23.662-23.498 38.394-56.221 38.394-92.385 0-1.215-0.017-2.426-0.050-3.632-6.595-53.868-32.837-100.794-71.246-134.039z" />
<glyph unicode="&#xe942;" glyph-name="ico_help_light" d="M512 877.419c237.162 0 429.419-192.258 429.419-429.419s-192.258-429.419-429.419-429.419c-237.162 0-429.419 192.258-429.419 429.419s192.258 429.419 429.419 429.419zM512 960c-282.77 0-512-229.23-512-512s229.23-512 512-512c282.77 0 512 229.23 512 512-0.843 282.43-229.57 511.157-511.919 512zM563.2 236.759c0-28.277-22.923-51.2-51.2-51.2s-51.2 22.923-51.2 51.2c0 28.277 22.923 51.2 51.2 51.2 0.198 0.003 0.431 0.004 0.665 0.004 27.912 0 50.539-22.627 50.539-50.539 0-0.234-0.002-0.467-0.005-0.7zM627.613 659.241c-27.898 27.664-66.313 44.759-108.722 44.759-0.042 0-0.084 0-0.126 0-95.952 0-153.593-64.083-153.593-166.317h82.581c0 63.917 38.317 82.581 64.083 82.581s57.641-19.159 57.641-51.2c6.441-38.317-12.717-57.641-38.317-82.581-57.641-57.641-63.917-82.581-63.917-147.159h82.581c0 25.6 0 51.2 38.483 95.959 32.041 32.041 64.083 70.359 64.083 128 1.047 6.014 1.646 12.94 1.646 20.006 0 28.809-9.954 55.294-26.611 76.201z" />
<glyph unicode="&#xe943;" glyph-name="ico_hidepassword" horiz-adv-x="1332" d="M1088.027 960l-185.635-174.033c-70.282 24.65-151.312 38.889-235.668 38.889-0.237 0-0.473 0-0.71 0-420.005 0-666.014-363.535-666.014-363.535 78.794-112.023 173.444-206.605 281.893-282.894l-157.922-164.005 78.422-78.422 964.055 945.363zM754.142 639.221c-26.017 11.622-56.381 18.39-88.325 18.39-122.221 0-221.301-99.080-221.301-221.301 0-31.082 6.408-60.667 17.974-87.507l-97.236-94.174c-86.258 57.882-160.234 125.371-223.090 202.302 81.5 93.339 266.061 256.844 523.887 256.844 51.423-0.052 101.34-6.395 149.056-18.299zM594.075 226.699l282.535 277.163c6.637-20.105 10.466-43.247 10.466-67.284 0-122.34-99.176-221.516-221.516-221.516-25.592 0-50.17 4.34-73.039 12.324zM1332.102 461.106s-236.341-413.381-666.051-413.381c-77.050 0.623-150.435 15.551-217.876 42.252l93.69 86.446c37.111-10.896 79.8-17.378 123.934-17.831 266.243-0.002 450.159 195.731 527.722 297.787-56.852 63.404-122.156 117.631-194.51 161.372l78.918 83.133c100.449-64.414 184.846-144.226 252.333-237.118z" />
<glyph unicode="&#xe944;" glyph-name="ico_info_dark" d="M512 960c-282.77 0-512-229.23-512-512s229.23-512 512-512c282.77 0 512 229.23 512 512s-229.23 512-512 512zM425.29 276.893c24.114 76.305 70.194 167.804 77.626 190.926 11.726 33.032-9.084 48.392-74.157-8.919l-14.534 27.252c74.488 80.929 227.592 99.097 175.566-26.095-33.032-78.286-55.825-131.138-69.203-171.933-19.489-59.458 29.564-35.345 77.626 9.084 6.606-10.735 8.588-14.204 15.195-26.426-106.694-101.574-224.95-110.493-188.119 6.111zM627.613 625.383c-9.764-8.826-22.771-14.226-37.039-14.226-14.781 0-28.208 5.796-38.133 15.239-7.563 8.506-12.197 19.806-12.197 32.187 0 15.714 7.464 29.685 19.041 38.56 9.88 8.911 22.887 14.312 37.155 14.312 14.781 0 28.208-5.796 38.133-15.239 7.299-8.561 11.754-19.784 11.754-32.047 0-15.664-7.268-29.629-18.616-38.709z" />
<glyph unicode="&#xe945;" glyph-name="ico_info_light" d="M512 874.612c235.611 0 426.612-191.001 426.612-426.612s-191.001-426.612-426.612-426.612c-235.611 0-426.612 191.001-426.612 426.612 0.282 235.498 191.114 426.33 426.585 426.612zM512 960c-282.77 0-512-229.23-512-512s229.23-512 512-512c282.77 0 512 229.23 512 512s-229.23 512-512 512zM425.29 276.893c24.114 76.305 70.194 167.804 77.626 190.926 11.726 33.032-9.084 48.392-74.157-8.919l-14.534 27.252c74.488 80.929 227.592 99.097 175.566-26.095-33.032-78.286-55.825-131.138-69.203-171.933-19.489-59.458 29.564-35.345 77.626 9.084 6.606-10.735 8.588-14.204 15.195-26.426-106.694-101.574-224.95-110.493-188.119 6.111zM627.613 625.383c-9.764-8.826-22.771-14.226-37.039-14.226-14.781 0-28.208 5.796-38.133 15.239-7.563 8.506-12.197 19.806-12.197 32.187 0 15.714 7.464 29.685 19.041 38.56 9.88 8.911 22.887 14.312 37.155 14.312 14.781 0 28.208-5.796 38.133-15.239 7.299-8.561 11.754-19.784 11.754-32.047 0-15.664-7.268-29.629-18.616-38.709z" />
<glyph unicode="&#xe946;" glyph-name="ico_location" horiz-adv-x="939" d="M436.356 651.148s-12.222 0-10.24 3.303l5.781 3.634c0.951 1.905 1.508 4.149 1.508 6.524s-0.557 4.619-1.547 6.61l2.021 5.199-4.294-1.156s5.946 25.93 14.039 14.204l-3.468-3.964c4.568-7.628 7.545-16.696 8.247-26.394 4.966-2.674 12.564-3.17 3.81-7.629 4.459 0-23.948-12.222-27.582-6.937s12.717 5.45 11.726 6.606zM405.801 657.92c-3.303-3.303 0-5.45 3.468-3.964 0.083-0.002 0.181-0.003 0.279-0.003 5.699 0 10.555 3.608 12.409 8.665l3.167 4.056-4.294 5.781c-2.485-0.5-4.544-2.017-5.759-4.089l-2.83-0.040-2.643-3.468v-1.817zM705.074 266.323l-31.215 51.53-30.885 50.539c-31.215 50.87-59.293 97.115-83.737 140.552l-2.973-2.808c-16.516-6.606-40.134 21.636-57.146 22.627 8.258-1.321 0 20.975 0 22.297-6.606 8.093-47.897-0.826-58.797-2.312-20.48-1.652-40.96-1.652-56.65-14.534-11.066-8.919-11.231-23.453-22.297-30.555-8.236-2.48-15.35-5.51-22.045-9.209-11.37-10.864-21.313-23.972-28.786-38.555-0.296-10.359 0.362-19.695 1.571-28.858-14.492-44.276 3.51-107.203 58.509-114.47 9.456-3.301 20.356-5.208 31.702-5.208 3.202 0 6.368 0.152 9.491 0.449 8.669 4.545 19.235 8.454 30.276 11.152 17.552 1.205 10.45-22.413 32.417-16.302 0.761 0.156 1.635 0.245 2.531 0.245 7.297 0 13.213-5.916 13.213-13.213 0-0.846-0.079-1.673-0.231-2.474-3.621-16.434-11.383-25.848 3.812-37.574 10.725-7.787 18.294-19.355 20.761-32.712 1.205-8.083 8.472-21.461 0.049-26.085-6.94-7.096-11.461-16.583-12.214-27.113 5.647-10.218 12.226-18.901 19.821-26.575 6.266-8.578 1.642-18.653 6.762-28.232 4.611-7.667 9.203-16.732 13.165-26.129 5.333-15.326 41.338-1.453 50.092-1.453 28.738 0 43.272 40.299 63.422 52.686 11.396 7.102 8.258 26.261 21.801 36.17s25.93 14.699 27.086 31.546-11.066 45.254-4.459 57.806zM393.579 596.645c-0.742-12.051-3.163-23.305-7.037-33.857-1.056-5.121 19.093-8.754 17.937-11.727 0 0 27.417 9.414 30.059 11.726l6.111 13.708c4.756 3.244 10.206 6.083 15.984 8.248l7.469 12.397c9.658 2.189 20.989 3.724 32.577 4.277 10.090-6.317 18.319-13.81 25.235-22.405l1.976-1.526c-11.487 22.498-22.991 49.791-32.642 77.946l-5.345 3.644c-11.386-2.275-21.121-8.186-28.186-16.448-9.011-6.11-19.407-10.922-30.541-13.938 13.308-1.655 12.647-11.895 11.491-20.814-2.312-20.975-46.906-2.147-45.089-9.91zM858.839 381.935c-11.895-205.94-181.803-368.44-389.665-368.44-110.913 0-211.020 46.267-282.073 120.553-8.561 9.064-14.837 30.040-0.964 38.463l14.204 3.634c11.066 9.414-10.405 47.401-1.817 53.512 26.261 18.828 13.874 41.951-2.312 60.945-7.597 8.754-44.759 48.227-49.053 41.786 0.002 0.234 0.004 0.511 0.004 0.788 0 16.881-4.796 32.641-13.101 45.993-10.025 16.146-23.404 27.047-28.689 45.71-1.003 12.926-3.348 24.901-6.917 36.335-5.431 1.753-10.34 5.396-14.54 9.73 13.672 79.282 49.616 148.48 101.069 202.848l34.845 13.858c21.966 33.032 23.288 7.432 42.942 16.516 6.606 0 14.204 27.086 21.141 31.381 12.387 7.928 2.973 7.928 0 11.561-4.79 7.928 102.895 47.071 104.712 39.969s-53.347-34.519-47.236-33.032c-8.598-3.71-14.506-12.115-14.506-21.899 0-1.66 0.17-3.281 0.494-4.846 6.91 0.154 50.348 33.186 70.662 26.249s55.494 16.516 69.368 27.252l1.652 1.652c1.285 33.725 8.692 65.387 21.137 94.375l-20.806-2.215c-258.939-0.152-468.792-210.098-468.792-469.058 0-259.054 210.004-469.058 469.058-469.058s469.058 210.004 469.058 469.058c0 33.563-3.525 66.303-10.225 97.87-20.43-39.898-44.048-78.876-69.648-121.488zM938.777 770.23c0-104.547-82.581-229.244-191.917-408.114-108.841 179.53-192.083 304.227-192.083 408.774 3.135 103.633 87.896 186.451 192 186.451s188.865-82.817 191.993-186.163zM821.512 767.422c0 41.23-33.423 74.653-74.653 74.653s-74.653-33.423-74.653-74.653c0-41.23 33.423-74.653 74.653-74.653 41.159 0.093 74.489 33.481 74.489 74.653 0 0.174-0.001 0.348-0.002 0.522z" />
<glyph unicode="&#xe947;" glyph-name="ico_login_dark" horiz-adv-x="1229" d="M409.64 601.689v204.721l409.441-358.311-409.441-358.311v204.721h-409.64v307.18h409.64zM716.82 960c-0.166 0-0.363 0-0.559 0-92.264 0-178.791-24.561-253.4-67.502l14.161-8.401 71.345-62.427c49.391 23.108 107.24 36.614 168.238 36.663 0.354 0.001 0.752 0.002 1.15 0.002 226.238 0 409.64-183.402 409.64-409.64s-183.402-409.64-409.64-409.64c-61.399 0-119.643 13.508-171.922 37.715l-68.811-64.669-11.693-10.305c72.157-41.265 158.592-65.597 250.71-65.597 282.715 0 511.901 229.186 511.901 511.901 0 282.44-228.741 511.456-511.077 511.9z" />
<glyph unicode="&#xe948;" glyph-name="ico_login_light" horiz-adv-x="1229" d="M716.82 960v-19.818c0.12 0 0.262 0 0.404 0 271.77 0 492.083-220.313 492.083-492.083s-220.313-492.083-492.083-492.083c-79.098 0-153.837 18.663-220.055 51.824l54.764 43.897c48.611-21.046 105.219-33.29 164.687-33.294 2.748-0.063 5.983-0.099 9.227-0.099 237.183 0 429.458 192.275 429.458 429.458s-192.275 429.458-429.458 429.458c-3.244 0-6.479-0.036-9.706-0.108 0.023 0.010-0.518 0.011-1.059 0.011-58.887 0-114.965-12.024-165.914-33.751l-49.158 46.63c63.137 31.626 137.564 50.14 216.315 50.14 0.174 0 0.348 0 0.522 0l-0.027 19.818zM429.458 761.819l359.5-313.72-359.5-314.711v180.939h-409.64v267.544h409.64v180.939zM716.82 960.991c-92.565-0.222-179.266-25.131-253.926-68.488l14.127-8.406 71.345-62.427c49.391 23.108 107.24 36.614 168.238 36.663 0.354 0.001 0.752 0.002 1.15 0.002 226.238 0 409.64-183.402 409.64-409.64s-183.402-409.64-409.64-409.64c-61.399 0-119.643 13.508-171.922 37.715l-68.811-64.669-11.693-10.305c72.157-41.265 158.592-65.597 250.71-65.597 282.715 0 511.901 229.186 511.901 511.901 0 282.44-228.741 511.456-511.077 511.9h-0.043zM409.64 807.401v-205.712h-409.64v-307.18h409.64v-204.721l409.441 358.311-409.441 358.311z" />
<glyph unicode="&#xe949;" glyph-name="ico_logout_dark" horiz-adv-x="1229" d="M819.081 601.689v204.721l409.64-358.311-409.64-358.311v204.721h-409.441v307.18h409.441zM716.82 89.788v4.162c-58.825-34.635-129.591-55.094-205.135-55.094-226.128 0-409.441 183.313-409.441 409.441s183.313 409.441 409.441 409.441c0.076 0 0.152 0 0.228 0 75.441-0.036 146.073-20.645 206.588-56.522l-1.879 115.976c-60.347 27.051-130.795 42.807-204.923 42.807-282.715 0-511.901-229.186-511.901-511.901s229.186-511.901 511.901-511.901c74.128 0 144.576 15.756 208.178 44.103l-3.254 109.487z" />
<glyph unicode="&#xe94a;" glyph-name="ico_logout_light" horiz-adv-x="1229" d="M511.901 940.182c0.138 0 0.302 0 0.465 0 66.574 0 130.035-13.328 187.861-37.461l-3.226-67.773c-54.403 26.759-118.417 42.411-186.087 42.411-237.183 0-429.458-192.275-429.458-429.458s192.275-429.458 429.458-429.458c67.67 0 131.685 15.651 188.621 43.531l-2.534-69.691c-54.844-22.941-118.571-36.267-185.411-36.267-271.77 0-492.083 220.313-492.083 492.083s220.313 492.083 492.083 492.083c0.109 0 0.218 0 0.328 0zM838.899 761.819l359.698-313.72-359.698-314.711v180.939h-409.441v267.544h409.441v180.939zM511.901 960.991c-0.060 0-0.131 0-0.202 0-282.715 0-511.901-229.186-511.901-511.901s229.186-511.901 511.901-511.901c74.128 0 144.576 15.756 208.177 44.103l-3.254 113.649c-59.228-35.246-130.595-56.080-206.828-56.080-226.128 0-409.441 183.313-409.441 409.441s183.313 409.441 409.441 409.441c0.741 0 1.481-0.002 2.221-0.006 75.339-0.035 145.971-20.645 206.486-56.521l-1.879 115.976c-60.203 27.050-130.495 42.807-204.467 42.807-0.089 0-0.178 0-0.267 0h0.014zM819.081 807.401v-205.712h-409.441v-307.18h409.441v-204.721l409.64 358.311-409.64 358.311z" />
<glyph unicode="&#xe94b;" glyph-name="ico_maintenance_dark" d="M992.785 117.677l-509.688 509.688c-20.632 20.872-33.377 49.579-33.377 81.262 0 3.138 0.125 6.247 0.37 9.321 0.426 4.936 0.683 11.154 0.683 17.433 0 124.054-100.566 224.619-224.619 224.619-0.191 0-0.383 0-0.574-0.001-22.871-0.002-44.981-3.382-65.832-9.667l137.542-134.849c14.699-67.716-83.572-167.143-152.114-152.114l-135.928 135.267c-5.87-19.236-9.249-41.347-9.249-64.246 0-0.059 0-0.117 0-0.176 0-0.054 0-0.13 0-0.205 0-124.054 100.566-224.619 224.619-224.619 6.278 0 12.496 0.258 18.644 0.763 1.863 0.166 4.971 0.291 8.109 0.291 31.683 0 60.39-12.745 81.273-33.387l509.677-509.842c19.253-19.253 45.851-31.162 75.231-31.162 58.759 0 106.393 47.634 106.393 106.393 0 29.38-11.908 55.978-31.162 75.231zM917.306 0.083c-23.534 0-42.612 19.078-42.612 42.612s19.078 42.612 42.612 42.612c23.534 0 42.612-19.078 42.612-42.612 0 0 0 0 0 0 0-23.534-19.078-42.612-42.612-42.612zM578.065 652.305l227.923 226.932c22.792 21.37 53.537 34.496 87.347 34.496 70.601 0 127.835-57.234 127.835-127.835 0-33.811-13.126-64.556-34.56-87.417l-226.867-226.862-44.594 44.428 216.196 215.701c2.815 3.228 4.531 7.478 4.531 12.128 0 10.216-8.282 18.498-18.498 18.498-4.65 0-8.9-1.716-12.15-4.55l-216.174-215.847-37.987 38.152 216.196 215.701c2.815 3.228 4.531 7.478 4.531 12.128 0 10.216-8.282 18.498-18.498 18.498-4.65 0-8.9-1.716-12.15-4.55l-216.174-215.847zM428.098 260.707l-222.968-221.316c-9.494-9.508-17.627-20.379-24.078-32.294l-13.248-25.513-89.517-45.585-35.675 35.51 43.768 91.665 24.774 12.883c12.657 6.591 23.531 14.514 33.060 23.811l222.94 221.124z" />
<glyph unicode="&#xe94c;" glyph-name="ico_maintenance_light" d="M883.778-64c-38.689 0.147-73.686 15.83-99.102 41.13l-467.236 467.236c-11.438 11.376-27.185 18.429-44.58 18.498h-4.638c-5.792-0.476-12.537-0.748-19.345-0.748-68.793 0-131.111 27.725-176.389 72.611-44.782 44.809-72.489 106.722-72.489 175.107 0 0.213 0 0.427 0.001 0.64 0.404 50.724 11.618 98.76 31.445 142.027l161.628-164.852c24.709 6.189 45.434 20.416 59.753 39.686 9.581 10.967 16.491 24.052 19.9 38.49l-163.059 163.951c40.571 18.615 87.963 29.692 137.884 30.223 0.984 0.011 1.92 0.016 2.857 0.016 136.824 0 247.742-110.918 247.742-247.742 0-7.214-0.308-14.356-0.913-21.413-0.054-0.527-0.121-2.211-0.121-3.91 0-17.463 7.076-33.273 18.518-44.72l467.241-467.076c25.382-25.351 41.083-60.391 41.083-99.097 0-77.351-62.706-140.057-140.057-140.057-0.043 0-0.087 0-0.13 0zM272.681 547.923c40.89-0.084 77.891-16.665 104.714-43.44l467.404-467.239c9.943-10.046 23.734-16.267 38.979-16.267 30.284 0 54.834 24.55 54.834 54.834 0 0.087 0 0.173-0.001 0.26-0.078 15.211-6.387 28.947-16.504 38.787l-466.593 467.419c-26.867 26.894-43.483 64.033-43.483 105.053 0 3.716 0.136 7.4 0.404 11.047 0.355 3.72 0.574 8.613 0.574 13.557 0 45.273-18.344 86.261-48.005 115.938-20.109 20.117-45.472 34.983-73.854 42.362l62.459-63.338c9.249-42.777 5.285-82.581-34.354-132.129-42.777-53.017-97.775-82.581-165.161-67.716l-63.917 62.926c18.399-71.46 82.262-123.413 158.26-123.413 4.638 0 9.231 0.194 13.772 0.573zM343.701 297.208l-199.019-198.194c-9.508-9.254-20.381-17.175-32.272-23.42l-25.534-13.246-44.263-90.839 35.675-35.51 89.683 45.585 12.883 24.774c6.8 12.659 14.935 23.532 24.443 33.031l199.020 198.195zM648.919 629.677l192.413 192.248c3.228 2.815 7.478 4.531 12.128 4.531 10.216 0 18.498-8.282 18.498-18.498 0-4.65-1.716-8.9-4.55-12.15l-192.394-192.060 37.987-37.987 192.248 192.083c3.228 2.815 7.478 4.531 12.128 4.531 10.216 0 18.498-8.282 18.498-18.498 0-4.65-1.716-8.9-4.55-12.15l-192.229-191.895 44.263-44.263 203.314 202.983c25.622 23.459 41.63 57.058 41.63 94.395 0 70.601-57.234 127.835-127.835 127.835-37.296 0-70.862-15.972-94.231-41.449l-203.564-203.077zM883.117 97.858c0 0 0 0 0 0-11.767 0-21.306-9.539-21.306-21.306s9.539-21.306 21.306-21.306c11.767 0 21.306 9.539 21.306 21.306 0 0 0 0 0 0 0.002 0.098 0.003 0.214 0.003 0.33 0 11.767-9.539 21.306-21.306 21.306-0.001 0-0.002 0-0.003 0z" />
<glyph unicode="&#xe94d;" horiz-adv-x="853" d="M426.612 960c-1.134 0.011-2.475 0.017-3.817 0.017-232.125 0-420.562-187.057-422.793-418.655-0.002-235.071 186.631-395.608 426.61-605.363 239.979 209.755 426.612 370.292 426.612 605.151-2.233 231.81-190.669 418.866-422.794 418.866-1.342 0-2.683-0.006-4.022-0.019zM426.612 192c-188.544 0-341.388 152.845-341.388 341.388s152.845 341.388 341.388 341.388c188.544 0 341.388-152.845 341.388-341.388s-152.845-341.388-341.388-341.388z" />
<glyph unicode="&#xe94e;" horiz-adv-x="853" d="M368.97 519.35s-49.548 6.937-81.59 8.588-66.065 1.982-67.551 3.303-1.982 5.285-3.634 4.459c-8.258-16.516-18.168-15.69-25.105-11.892-3.213 2.594-5.25 6.533-5.25 10.947 0 3.156 1.041 6.068 2.799 8.413-4.334 0.088-8.277 1.558-11.473 3.964-5.179 4.192-9.867 8.514-14.263 13.118-2.862 3.361-2.037 9.967 6.056 15.252s40.465 25.93 66.065 24.774 123.706-36.335 135.267-38.317l56.32-10.405s209.094 131.138 214.71 134.441c2.544 1.524 5.612 2.426 8.891 2.426 1.837 0 3.608-0.283 5.272-0.808 4.831 0.034 16.392-6.573 13.419-9.876s-177.879-140.222-177.879-140.222c15.467-4.168 34.886-8.040 54.67-10.768 3.654-0.255 4.841-0.23 6.035-0.23 10.646 0 20.834-1.963 30.22-5.548 4.084-2.971 9.722-5.055 15.806-5.577 0.201-0.009 0.285-0.008 0.369-0.008 4.632 0 9.095-0.725 13.281-2.068l0.518-7.347 25.6-14.039c0.091-0.571 0.143-1.23 0.143-1.901 0-3.198-1.18-6.12-3.129-8.354l-14.026-3.288 51.53-39.143c-0.663-0.009-1.446-0.015-2.229-0.015-13.26 0-26.168 1.51-38.56 4.367-4.96 3.41-33.533 27.854-33.533 27.854l-1.982-42.942c-6.032 0.297-11.697 1.065-17.197 2.273l-9.229 2.682h-1.982l-25.105-55.164-37.161 6.937 48.227 95.794s-45.419 9.414-68.046 15.195c-9.901 2.717-22.477 5.313-35.282 7.204l-5.182 1.054s-179.035-78.286-192.578-75.479l-16.516 4.955 0.826 4.129s121.724 68.046 132.129 81.59v0z" />
<glyph unicode="&#xe94f;" horiz-adv-x="853" d="M426.612 960c-1.134 0.011-2.475 0.017-3.817 0.017-232.125 0-420.562-187.057-422.793-418.655-0.002-235.071 186.631-395.608 426.61-605.363 239.979 209.755 426.612 370.292 426.612 605.151-2.233 231.81-190.669 418.866-422.794 418.866-1.342 0-2.683-0.006-4.022-0.019zM426.612 192c-188.544 0-341.388 152.845-341.388 341.388s152.845 341.388 341.388 341.388c188.544 0 341.388-152.845 341.388-341.388s-152.845-341.388-341.388-341.388z" />
<glyph unicode="&#xe950;" horiz-adv-x="853" d="M682.612 437.265v32.041l-223.959 111.979v176.062c-1.236 16.679-15.072 29.742-31.959 29.742s-30.723-13.064-31.952-29.636l-0.006-176.168-224.124-111.979v-32.041l225.941 56.485 11.066-133.12-76.965-51.365v-32.041l95.959 32.041 95.959-32.041v32.041l-77.13 51.365 11.066 133.12z" />
<glyph unicode="&#xe951;" horiz-adv-x="853" d="M426.612 960c-1.134 0.011-2.475 0.017-3.817 0.017-232.125 0-420.562-187.057-422.793-418.655-0.002-235.071 186.631-395.608 426.61-605.363 239.979 209.755 426.612 370.292 426.612 605.151-2.233 231.81-190.669 418.866-422.794 418.866-1.342 0-2.683-0.006-4.022-0.019zM426.612 192c-188.544 0-341.388 152.845-341.388 341.388s152.845 341.388 341.388 341.388c188.544 0 341.388-152.845 341.388-341.388s-152.845-341.388-341.388-341.388z" />
<glyph unicode="&#xe952;" horiz-adv-x="853" d="M498.787 527.443c1.005-1.311 2.209-2.41 3.577-3.27 0.902-0.439 1.476-1.289 1.476-2.273 0-0.52-0.16-1.003-0.434-1.402-1.441-3.652-3.162-6.808-5.212-9.716-2.144-2.745-5.271-4.852-8.872-5.776-0.462-0.076-0.863-0.105-1.271-0.105s-0.809 0.029-1.201 0.085c-3.168-0.095-6.238-0.452-9.219-1.055l-17.988-2.584h-5.285c-3.634 0-7.267-0.991-10.735-1.817l-9.414-1.982-12.552-2.477c-3.799 0-7.432-1.652-11.231-2.312l-12.552-2.477c-0.943-0.135-2.031-0.212-3.138-0.212s-2.195 0.077-3.261 0.227l-11.934 0.812c-6.903 0.215-13.4 1.713-19.34 4.261-1.636 0.694-3.783 1.189-5.765 2.18s-171.107-23.783-173.915-24.444c-0.232-0.157-0.518-0.25-0.826-0.25s-0.594 0.094-0.831 0.254l-7.592 9.741c2.477 0 170.612 22.132 173.75 22.627 0.095-0.004 0.207-0.006 0.319-0.006 1.456 0 2.825 0.369 4.019 1.019-0.524 0.606-1.068 1.15-1.675 1.614l-41.146 20.495-48.392 23.948c-1.328 0.428-2.48 1.047-3.494 1.836l0.025-0.019c1.426 0.875 3.081 1.559 4.844 1.961 0.768 0.213 1.522 0.324 2.303 0.324 1.929 0 3.7-0.675 5.090-1.801l23.768-10.393 22.297-9.579c6.772-2.973 14.204-5.946 20.975-9.084s15.525-6.441 15.525-6.606v0c1.308 4.245 3.466 7.897 6.291 10.916 0.356 0.904 1.146 1.586 2.113 1.797 5.965 0.995 11.746 2.977 17.857 3.472 1.514 0.236 3.26 0.371 5.037 0.371s3.524-0.135 5.228-0.395c3.91-0.567 7.141-3.686 7.893-7.679 0.058-0.628 0.086-1.29 0.086-1.959s-0.028-1.331-0.082-1.985 58.473 62.186 63.263 67.471c0.26 0.591 0.841 0.997 1.516 0.997 0.048 0 0.095-0.002 0.142-0.006 2.705-0.355 5.158-0.991 7.48-1.891-1.54-2.073-46.464-52.777-52.905-60.54-0.957-0.731-1.658-1.754-1.973-2.935l-0.009-0.038c0.472-0.092 1.014-0.145 1.569-0.145s1.097 0.053 1.623 0.153c2.754-0.009 5.562-0.009 8.369 0.982h7.102l8.258 0.991h7.102c1.51 0.076 2.88 0.623 3.978 1.497 6.445 6.366 14.715 10.923 23.956 12.819 1.6 0.32 3.084 0.474 4.603 0.474s3.003-0.153 4.436-0.445c4.395-1.081 8.185-3.742 10.719-7.349 0.343-0.257 0.714-0.375 1.113-0.375s0.77 0.118 1.081 0.321l186.625 44.919c0.196 0.079 0.423 0.124 0.661 0.124s0.465-0.046 0.673-0.129-0.012 0.004-0.012 0.004c-1.904-3.468-3.873-6.439-6.058-9.232-0.784-0.572-1.935-1.008-3.187-1.008-0.001 0-0.003 0-0.004 0-7.267-1.817-173.749-44.098-174.41-44.098v0z" />
<glyph unicode="&#xe953;" glyph-name="ico_mappoint_empty" horiz-adv-x="853" d="M426.612 960c-1.134 0.011-2.475 0.017-3.817 0.017-232.125 0-420.562-187.057-422.793-418.655-0.002-235.071 186.631-395.608 426.61-605.363 239.979 209.755 426.612 370.292 426.612 605.151-2.233 231.81-190.669 418.866-422.794 418.866-1.342 0-2.683-0.006-4.022-0.019zM426.612 192c-188.544 0-341.388 152.845-341.388 341.388s152.845 341.388 341.388 341.388c188.544 0 341.388-152.845 341.388-341.388s-152.845-341.388-341.388-341.388z" />
<glyph unicode="&#xe954;" horiz-adv-x="853" d="M426.612 960c-1.134 0.011-2.475 0.017-3.817 0.017-232.125 0-420.562-187.057-422.793-418.655-0.002-235.071 186.631-395.608 426.61-605.363 239.979 209.755 426.612 370.292 426.612 605.151-2.233 231.81-190.669 418.866-422.794 418.866-1.342 0-2.683-0.006-4.022-0.019zM426.612 192c-188.544 0-341.388 152.845-341.388 341.388s152.845 341.388 341.388 341.388c188.544 0 341.388-152.845 341.388-341.388s-152.845-341.388-341.388-341.388z" />
<glyph unicode="&#xe955;" horiz-adv-x="853" d="M653.874 678.070c-8.455 7.776-17.999 14.581-28.326 20.116 0.917 3.954 1.89 8.155 1.9 12.582 0.001 0.103 0.002 0.221 0.002 0.338 0 15.789-12.661 28.622-28.384 28.899-4.937-0.010-9.547-1.294-13.544-3.54-7.042 10.344-15.153 19.242-24.27 26.993-19.689 16.682-38.847 27.252-42.811 22.462s8.588-22.627 28.077-39.639c8.286-7.519 17.607-14.153 27.658-19.612-1.965-4.787-3.573-10.134-3.573-15.856 0-3.876 0.738-7.58 2.081-10.979-30.648-33.584-66.372-61.988-106.147-83.955-13.883 5.263-27.877 8.981-42.74 8.981-12.286 0-23.979-2.541-34.582-7.126-39.404 18.22-86.97 63.144-108.607 84.945 0.562 2.167 0.885 4.655 0.885 7.219 0 5.157-1.306 10.010-3.605 14.245 10.747 6.415 19.964 13.899 28.106 22.417 18.383 18.551 29.614 37.214 25.319 41.673s-22.627-6.772-40.96-25.27c-8.33-8.172-15.647-17.328-21.777-27.292-4.726 2.388-10.133 4.185-15.961 4.185-0.32 0-0.639-0.005-0.956-0.016-15.775-0.184-28.529-13.053-28.529-28.9 0-0.117 0.001-0.233 0.002-0.35 0.013-4.801 1.171-9.346 3.216-13.364-10.678-6.417-19.839-13.898-27.936-22.401-18.387-18.555-29.618-37.218-25.324-41.678s22.627 6.772 40.96 25.27c8.309 8.090 15.621 17.135 21.779 26.977 4.726-2.407 10.137-4.206 15.968-4.206 3.405 0 6.667 0.613 9.681 1.736 32.233-29.931 59.71-64.513 81.306-102.849-6.14-15.087-10.392-30.593-10.392-47.092 0-13.593 2.886-26.512 8.079-38.178-22.025-41.803-48.283-78.236-79.147-110.193-2.388 0.962-5.284 1.444-8.291 1.454-0.028 0-0.055 0-0.082 0-5.279 0-10.214-1.474-14.415-4.033-6.962 11.113-15.155 20.619-24.503 28.844-19.308 17.635-38.136 27.875-42.265 23.251s7.102-22.792 26.921-40.299c8.621-8.221 18.389-15.356 29.013-21.116-1.981-4.728-3.578-10.028-3.578-15.701 0-0.063 0-0.126 0.001-0.189-0.001-0.089-0.002-0.206-0.002-0.322 0-15.847 12.754-28.716 28.557-28.901 0.028 0 0.041 0 0.054 0 5.5 0 10.627 1.6 14.939 4.361 6.676-9.694 14.178-18.087 22.536-25.539 19.304-17.635 38.133-27.875 42.262-23.25s-8.093 22.792-27.252 40.299c-7.99 7.441-16.921 14.058-26.546 19.609 1.243 4.249 2.384 8.816 2.384 13.65 0 3.283-0.526 6.443-1.499 9.4 28.987 33.405 62.667 61.88 100.28 84.476 13.796-5.501 28.020-9.342 43.14-9.342s29.344 3.841 41.748 10.601c39.724-24.712 74.275-53.273 104.257-86.079-0.389-2.784-0.81-5.567-0.829-8.446 0.011-5.089 1.294-9.865 3.546-14.042-10.127-6.52-18.848-13.981-26.578-22.37-18.093-18.928-28.994-37.756-24.534-42.216s22.462 7.267 40.465 26.095c7.827 8.095 14.765 17.136 20.603 26.909 4.506-1.914 9.526-3.45 14.905-3.456 15.566 0.366 28.064 12.981 28.244 28.556-0.006 4.966-1.227 9.627-3.381 13.722 10.971 6.673 20.361 14.54 28.556 23.516 18.428 19.099 29.328 37.432 24.373 42.386s-22.462-7.267-40.465-26.095c-8.109-8.292-15.222-17.613-21.11-27.735-4.767 2.406-10.236 4.247-16.134 4.247-3.346 0-6.554-0.592-9.524-1.678-32.584 31.38-60.146 67.796-81.295 108.103 4.243 13.732 7.355 27.134 7.355 41.264s-3.113 27.532-8.69 39.56c24.952 41.029 53.805 76.821 87.023 108.019 2.251-0.271 4.538-0.564 6.894-0.564 6.207 0 11.938 2.038 16.561 5.482 7.009-10.044 14.951-18.72 23.844-26.315 19.685-16.679 38.844-27.25 42.808-22.46s-8.588 22.627-28.077 39.639v0zM253.027 704.495c0 0 0 0 0 0-3.649 0-6.606 2.958-6.606 6.606s2.958 6.606 6.606 6.606c3.649 0 6.606-2.958 6.606-6.606 0 0 0 0 0 0 0-3.649-2.958-6.606-6.606-6.606zM253.027 350.72c0 0 0 0 0 0-3.649 0-6.606 2.958-6.606 6.606s2.958 6.606 6.606 6.606c3.649 0 6.606-2.958 6.606-6.606 0 0 0 0 0 0s0-0.001 0-0.002c0-3.591-2.864-6.512-6.433-6.604zM596.232 363.437c0 0 0 0 0 0 3.649 0 6.606-2.958 6.606-6.606s-2.958-6.606-6.606-6.606c-3.649 0-6.606 2.958-6.606 6.606 0 0 0 0 0 0s0 0.001 0 0.002c0 3.649 2.958 6.606 6.606 6.606 0.058 0 0.116-0.001 0.174-0.002zM598.545 704.661c0 0 0 0 0 0-3.649 0-6.606 2.958-6.606 6.606s2.958 6.606 6.606 6.606c3.649 0 6.606-2.958 6.606-6.606 0 0 0 0 0 0s0-0.001 0-0.002c0-3.591-2.864-6.512-6.433-6.604z" />
<glyph unicode="&#xe956;" horiz-adv-x="853" d="M259.634 711.102c0-3.649-2.958-6.606-6.606-6.606s-6.606 2.958-6.606 6.606c0 3.649 2.958 6.606 6.606 6.606s6.606-2.958 6.606-6.606z" />
<glyph unicode="&#xe957;" horiz-adv-x="853" d="M605.481 711.102c0-3.649-2.958-6.606-6.606-6.606s-6.606 2.958-6.606 6.606c0 3.649 2.958 6.606 6.606 6.606s6.606-2.958 6.606-6.606z" />
<glyph unicode="&#xe958;" horiz-adv-x="853" d="M603.169 356.831c0-3.649-2.958-6.606-6.606-6.606s-6.606 2.958-6.606 6.606c0 3.649 2.958 6.606 6.606 6.606s6.606-2.958 6.606-6.606z" />
<glyph unicode="&#xe959;" horiz-adv-x="853" d="M259.964 357.326c0-3.649-2.958-6.606-6.606-6.606s-6.606 2.958-6.606 6.606c0 3.649 2.958 6.606 6.606 6.606s6.606-2.958 6.606-6.606z" />
<glyph unicode="&#xe95a;" glyph-name="ico_password" horiz-adv-x="768" d="M298.612 234.612c0-23.534-19.078-42.612-42.612-42.612s-42.612 19.078-42.612 42.612c0 23.534 19.078 42.612 42.612 42.612 0 0 0 0 0 0 23.534 0 42.612-19.078 42.612-42.612zM426.612 234.612c-0.094-23.463-19.136-42.446-42.611-42.446-23.534 0-42.612 19.078-42.612 42.612s19.078 42.611 42.611 42.612c0 0 0 0 0 0 23.534 0 42.612-19.078 42.612-42.612 0-0.058 0-0.116 0-0.174zM554.612 234.612c0-23.534-19.078-42.612-42.612-42.612s-42.612 19.078-42.612 42.612c0 23.534 19.078 42.612 42.612 42.612 0 0 0 0 0 0 23.534 0 42.612-19.078 42.612-42.612zM640 533.388v170.612c0 141.385-114.615 256-256 256s-256-114.615-256-256v-170.612h-128v-597.388h768v597.388h-128zM213.388 704c0 94.272 76.422 170.694 170.694 170.694s170.694-76.422 170.694-170.694v-170.612h-341.388v170.612zM682.612 21.388h-597.223v426.612h597.223v-426.612z" />
<glyph unicode="&#xe95b;" glyph-name="ico_plane_dark" d="M1024 255.917v64.083l-447.917 223.959v351.959c-1.779 33.964-29.752 60.83-64 60.83s-62.221-26.866-63.993-60.672l-0.007-352.117-448.083-223.959v-64.083l451.881 112.97 22.297-266.075-154.095-102.73v-64.083l191.917 63.917 192.083-63.917v63.917l-154.095 102.73 22.132 266.24z" />
<glyph unicode="&#xe95c;" glyph-name="ico_plane_light" horiz-adv-x="1023" d="M511.507 941.591cNaNNaNNaNNaNNaNNaNNaNNaNNaNNaNNaNNaNNaNNaNNaNNaNNaNNaNNaNNaNNaNNaNNaNNaNNaNNaNlNaNNaNNaNNaNNaNNaNNaNNaNNaNNaNNaNNaNNaNNaNNaNNaNNaNNaNNaNNaNNaNNaNNaNNaNNaNNaNNaNNaNNaNNaNNaNNaNNaNNaNNaNNaNNaNNaNNaNNaNNaNNaNNaNNaNNaNNaNNaNNaNcNaNNaNNaNNaNNaNNaNzM511.507 958.028c-35.151-0.094-63.61-28.61-63.61-63.774 0 0 0 0 0 0v-350.264l-445.925-222.88v-63.774l449.705 112.426 22.189-264.794-153.353-102.236v-63.774l190.993 63.61 191.158-63.61v63.61l-153.353 102.236 22.025 264.958 449.705-112.426v63.774l-445.761 222.88v350.264c0 35.221-28.553 63.774-63.774 63.774 0 0 0 0 0 0v0zM704.637-63.836l-2.63 0.986-190.5 63.281-193.13-64.267v67.554l153.353 102.236-21.861 261.342-449.87-112.591v67.719h1.151l444.61 222.88v348.949c0 36.311 29.436 65.746 65.746 65.746s65.746-29.436 65.746-65.746v-348.949l445.925-222.88v-67.554h-2.63l-447.404 111.769-21.861-261.342 153.353-102.236v-67.719zM511.507 4.705v0l189.021-62.952v59.829l-153.518 101.743v1.808l22.354 267.423h2.301l447.24-111.769v59.007l-445.761 223.045v351.414c0 34.041-27.596 61.637-61.637 61.637s-61.637-27.596-61.637-61.637v-351.414l-445.761-223.045v-59.829l449.541 112.426 22.354-269.067h-0.986l-152.532-101.743v-59.665zM688.2-41.153l-2.63 0.986-174.064 58.021-4.602-1.479-172.091-57.528v36.161l154.011 102.729-24.162 290.27-448.226-112.098v36.325h1.151l444.61 222.88v359.14c0 27.233 22.077 49.31 49.31 49.31s49.31-22.077 49.31-49.31v-359.14l445.925-222.88v-36.325h-2.63l-445.761 111.933-24.162-290.27 154.011-102.729v-35.996zM511.507 22.128l172.584-57.528v28.107l-154.175 102.729 0.986 10.848 23.997 286.654 448.39-111.933v28.6l-446.582 223.045v361.605c0 24.964-20.237 45.201-45.201 45.201s-45.201-20.237-45.201-45.201v-361.605l-445.761-223.045v-28.6l447.897 111.933 24.819-297.502-154.34-102.729v-28.107z" />
</font>
</defs>
</svg>
